<?xml version="1.0" standalone="no"?>
<!DOCTYPE svg PUBLIC "-//W3C//DTD SVG 20010904//EN"
 "http://www.w3.org/TR/2001/REC-SVG-20010904/DTD/svg10.dtd">
<svg version="1.0" xmlns="http://www.w3.org/2000/svg"
 width="1088.000000pt" height="588.000000pt" viewBox="0 0 1088.000000 588.000000"
 preserveAspectRatio="xMidYMid meet">

<g transform="translate(0.000000,588.000000) scale(0.100000,-0.100000)"
fill="#000000" stroke="none">
<path d="M6158 4448 l-3 -83 -167 -3 -168 -2 0 -675 0 -675 680 0 680 0 0 85
0 85 165 0 165 0 0 165 0 164 -82 3 -83 3 -3 338 -2 337 -80 0 -80 0 0 85 0
85 -257 2 -258 3 -3 83 -3 82 -249 0 -249 0 -3 -82z m1012 -1183 l0 -85 -85 0
-85 0 0 85 0 85 85 0 85 0 0 -85z"/>
<path d="M8770 2160 l0 -710 185 0 185 0 0 710 0 710 -185 0 -185 0 0 -710z"/>
<path d="M5506 2552 c-229 -243 -236 -251 -236 -291 l0 -41 95 0 95 0 0 -202
c0 -232 9 -306 43 -380 31 -70 78 -115 157 -152 64 -30 69 -31 243 -34 l177
-4 0 161 0 161 -85 0 c-96 0 -134 14 -153 55 -8 17 -12 89 -12 210 l0 185 125
0 125 0 0 135 0 135 -130 0 -129 0 -3 153 -3 152 -36 3 c-36 3 -41 -2 -273
-246z"/>
<path d="M1105 2524 c-278 -43 -465 -264 -465 -550 0 -256 137 -454 367 -529
148 -49 327 -31 445 44 l48 31 14 -35 15 -35 140 0 141 0 0 520 0 520 -139 0
-139 0 -13 -32 c-7 -18 -13 -34 -14 -36 -1 -1 -29 14 -61 33 -32 20 -81 42
-109 51 -53 16 -179 25 -230 18z m235 -346 c156 -79 164 -316 13 -405 -182
-106 -397 60 -339 262 19 62 62 117 115 145 53 28 153 27 211 -2z"/>
<path d="M2393 2520 c-115 -23 -182 -58 -266 -139 -73 -70 -112 -137 -137
-237 -62 -242 37 -492 238 -597 106 -56 169 -70 286 -65 85 4 112 9 175 36
l74 31 -5 -44 c-7 -60 -41 -110 -96 -143 -40 -23 -58 -27 -122 -27 -63 0 -82
4 -120 27 -25 14 -52 38 -60 52 l-13 26 -175 0 -174 0 7 -37 c4 -21 23 -68 42
-106 63 -120 181 -206 336 -242 74 -17 244 -20 319 -4 64 14 178 65 233 106
52 38 110 123 143 209 l27 69 3 528 3 527 -125 0 -126 0 -20 -40 -21 -41 -32
25 c-100 76 -264 111 -394 86z m228 -305 c159 -56 198 -280 69 -388 -87 -74
-245 -56 -310 35 -82 113 -51 276 64 335 69 36 113 40 177 18z"/>
<path d="M4507 2515 c-138 -28 -274 -115 -351 -227 -61 -89 -89 -184 -89 -308
-2 -161 37 -268 135 -375 112 -124 262 -187 441 -187 313 1 533 176 582 467
14 80 14 98 0 179 -32 187 -126 316 -287 395 -137 68 -278 86 -431 56z m267
-352 c64 -45 91 -102 90 -193 0 -65 -4 -81 -28 -120 -38 -59 -61 -77 -123 -96
-148 -44 -283 60 -283 220 0 98 53 181 136 212 62 23 157 13 208 -23z"/>
<path d="M6635 2520 c-119 -22 -252 -95 -326 -178 -54 -61 -104 -162 -119
-239 -18 -88 -9 -254 18 -326 45 -125 147 -238 269 -300 110 -57 313 -76 443
-42 204 52 366 210 409 395 16 70 13 238 -5 301 -52 175 -175 302 -354 365
-83 29 -245 40 -335 24z m196 -331 c90 -30 149 -117 149 -219 -1 -203 -242
-303 -378 -156 -44 48 -62 96 -62 166 0 52 35 134 72 167 50 46 149 65 219 42z"/>
<path d="M7907 2520 c-66 -12 -170 -54 -234 -97 -100 -66 -175 -175 -209 -300
-20 -77 -20 -222 1 -303 62 -244 285 -402 565 -402 268 1 483 146 555 373 30
95 34 240 10 332 -73 282 -366 451 -688 397z m197 -332 c82 -25 146 -119 146
-214 0 -87 -50 -173 -124 -211 -50 -26 -143 -22 -201 8 -125 64 -155 256 -57
361 59 62 145 83 236 56z"/>
<path d="M9632 2519 c-69 -12 -167 -58 -219 -103 -23 -20 -54 -62 -69 -92 -24
-48 -27 -68 -27 -144 1 -107 22 -160 90 -220 55 -48 123 -75 274 -106 138 -28
168 -40 175 -71 15 -60 -21 -93 -100 -93 -55 0 -93 28 -102 75 l-6 35 -174 0
c-198 0 -184 8 -163 -92 16 -75 40 -117 98 -171 89 -83 202 -120 362 -119 172
1 315 61 389 164 84 116 79 305 -11 403 -51 55 -134 89 -295 120 -172 33 -208
56 -185 118 12 31 68 52 116 43 37 -7 75 -47 75 -77 0 -18 11 -19 171 -19
l172 0 -6 49 c-26 220 -269 349 -565 300z"/>
<path d="M3855 2495 c-5 -1 -36 -8 -68 -15 -40 -8 -72 -23 -107 -51 -27 -21
-51 -39 -53 -39 -2 0 -14 23 -27 50 l-23 50 -124 0 -123 0 0 -520 0 -520 179
0 180 0 3 303 c3 283 4 304 23 337 34 57 75 74 192 78 l103 4 0 164 0 164 -72
-1 c-40 0 -77 -2 -83 -4z"/>
</g>
</svg>
