<?xml version="1.0" standalone="no"?>
<!DOCTYPE svg PUBLIC "-//W3C//DTD SVG 20010904//EN"
 "http://www.w3.org/TR/2001/REC-SVG-20010904/DTD/svg10.dtd">
<svg version="1.0" xmlns="http://www.w3.org/2000/svg"
 width="351.000000pt" height="329.000000pt" viewBox="0 0 351.000000 329.000000"
 preserveAspectRatio="xMidYMid meet">

<g transform="translate(0.000000,329.000000) scale(0.100000,-0.100000)"
fill="#000000" stroke="none">
<path d="M1520 3199 c-686 -50 -1261 -542 -1424 -1218 -192 -793 264 -1611
1044 -1872 232 -77 255 -79 1091 -79 l739 0 -2 162 -3 163 -760 6 c-678 5
-768 7 -834 23 -464 110 -832 466 -947 914 -109 426 4 856 306 1176 221 233
492 365 815 396 61 5 239 10 398 10 l287 0 -2 163 -3 162 -300 1 c-165 1 -347
-2 -405 -7z"/>
<path d="M1445 2696 c-484 -91 -858 -502 -894 -984 -8 -114 2 -256 24 -348 38
-152 130 -322 238 -441 l52 -56 6 454 c6 502 6 505 75 644 89 182 258 322 469
387 67 21 89 22 562 26 471 3 496 2 580 -18 231 -55 410 -197 509 -405 75
-158 74 -137 74 -1085 l0 -840 166 0 165 0 -4 858 c-3 750 -6 866 -20 932 -95
430 -391 745 -805 858 l-97 26 -515 2 c-391 2 -532 0 -585 -10z"/>
<path d="M1497 2194 c-33 -8 -94 -32 -138 -55 -187 -97 -307 -284 -323 -504
-3 -44 -2 -269 2 -499 l7 -420 85 -43 c47 -24 119 -52 160 -62 l75 -19 5 542
c5 527 6 542 27 588 11 25 40 64 62 86 71 69 92 72 453 72 l318 0 0 165 0 165
-337 -1 c-255 0 -352 -4 -396 -15z"/>
</g>
</svg>
