<?xml version="1.0" standalone="no"?>
<!DOCTYPE svg PUBLIC "-//W3C//DTD SVG 20010904//EN"
 "http://www.w3.org/TR/2001/REC-SVG-20010904/DTD/svg10.dtd">
<svg version="1.0" xmlns="http://www.w3.org/2000/svg"
 width="1200.000000pt" height="723.000000pt" viewBox="0 0 1200.000000 723.000000"
 preserveAspectRatio="xMidYMid meet">

<g transform="translate(0.000000,723.000000) scale(0.100000,-0.100000)"
fill="#000000" stroke="none">
<path d="M2020 6579 c0 -276 3 -397 12 -412 6 -12 96 -159 200 -325 l189 -304
-3 -95 -3 -96 -165 -67 c-338 -136 -790 -351 -1085 -516 -149 -83 -447 -262
-530 -318 l-63 -41 204 -445 c112 -245 204 -454 203 -465 0 -11 -111 -375
-248 -810 -136 -434 -246 -792 -245 -793 1 -2 58 32 126 75 177 114 396 245
603 360 169 95 358 193 370 193 3 0 5 -196 5 -435 0 -298 3 -435 11 -435 5 0
56 26 112 59 156 89 375 202 545 280 85 39 156 71 158 71 2 0 4 -83 4 -184 l0
-184 -195 -299 -195 -298 0 -412 0 -413 1325 0 1325 0 0 1214 0 1213 93 13
c50 6 116 13 146 13 l54 2 511 -807 c281 -444 513 -807 516 -807 3 0 235 363
515 806 281 443 516 808 523 810 11 5 135 -8 245 -24 l37 -6 0 -1213 0 -1214
1325 0 1325 0 0 413 0 412 -195 299 -195 298 0 184 c0 101 2 184 5 184 28 0
528 -250 710 -355 52 -30 99 -55 105 -55 7 0 10 149 10 435 0 239 4 435 8 435
13 0 325 -166 500 -267 92 -52 263 -156 381 -229 117 -74 214 -134 216 -134 1
0 -110 357 -246 793 -137 435 -248 801 -249 811 0 10 90 215 199 455 110 240
201 441 203 448 3 13 -53 51 -286 192 -420 254 -891 490 -1361 682 l-190 77
-3 95 -3 95 189 304 c104 166 194 313 200 325 9 15 12 136 12 412 l0 391
-1247 -2 -1247 -3 -481 -747 -480 -748 -50 8 c-65 9 -885 9 -950 0 l-50 -8
-480 748 -481 747 -1247 3 -1247 2 0 -391z m4300 -1379 c1247 -54 2518 -376
3601 -911 l199 -98 0 -1050 0 -1050 -117 55 c-1068 505 -2151 798 -3333 901
-293 25 -1049 25 -1339 0 -654 -57 -1265 -170 -1881 -348 -457 -132 -962 -321
-1345 -504 -66 -31 -144 -68 -172 -81 l-53 -24 0 1050 0 1051 198 97 c1286
635 2857 972 4242 912z m-3900 -294 l0 -154 -32 -12 c-95 -38 -262 -115 -510
-237 l-278 -136 -2 -771 -3 -771 -205 -105 c-113 -58 -257 -133 -319 -168 -62
-35 -115 -62 -117 -59 -3 3 65 229 151 503 86 275 157 508 157 519 0 11 -80
193 -177 404 -167 363 -176 386 -158 399 88 66 491 290 758 422 254 124 693
317 728 320 4 0 7 -69 7 -154z m7336 88 c320 -133 602 -267 872 -415 178 -98
450 -258 457 -269 3 -5 -74 -181 -171 -392 -96 -211 -176 -392 -176 -403 0
-11 70 -244 157 -519 86 -274 154 -500 152 -502 -2 -3 -78 36 -168 85 -90 49
-234 125 -319 168 l-155 78 -3 771 -2 771 -308 150 c-169 83 -353 170 -409
194 l-103 44 0 152 c0 84 4 153 9 153 5 0 80 -30 167 -66z"/>
<path d="M5699 4883 c-6 -16 -107 -298 -224 -628 -117 -330 -216 -608 -220
-617 -5 -12 -24 -19 -66 -24 l-59 -7 0 -130 0 -130 48 7 c47 6 318 24 422 29
l55 2 3 127 3 127 -65 3 -64 3 42 115 43 115 249 7 c137 4 252 4 255 0 7 -9
79 -210 79 -223 0 -5 -27 -9 -60 -9 l-60 0 0 -129 0 -129 183 -7 c100 -4 226
-10 280 -14 l97 -6 0 127 0 127 -32 5 c-18 3 -48 7 -67 8 l-34 3 -218 635
-217 635 -181 3 -181 2 -11 -27z m266 -538 c41 -120 74 -219 72 -220 -1 -2
-75 -5 -164 -7 -114 -4 -163 -2 -163 6 0 6 37 113 82 239 54 150 84 223 90
214 4 -8 41 -113 83 -232z"/>
<path d="M6560 4676 l0 -214 38 -6 c20 -3 79 -8 130 -12 l92 -6 0 86 c0 75 2
86 18 86 20 0 183 -18 230 -26 l32 -5 0 -501 0 -501 -65 7 -65 7 0 -129 0
-130 98 -11 c53 -7 179 -25 280 -41 100 -17 187 -30 193 -30 6 0 9 48 7 128
l-3 127 -60 10 -60 11 -3 502 c-2 474 -1 502 15 502 10 -1 72 -11 138 -24
l120 -22 3 -88 c2 -57 7 -88 15 -91 7 -3 63 -15 125 -28 l112 -24 0 217 0 217
-92 21 c-349 80 -1056 182 -1260 182 l-38 0 0 -214z"/>
<path d="M5125 4874 c-11 -1 -69 -8 -130 -14 -322 -34 -868 -131 -1125 -200
l-40 -11 0 -214 c0 -118 3 -215 8 -215 4 0 60 12 125 27 l117 27 0 88 c0 83 1
88 23 93 58 14 221 45 233 45 21 0 21 -995 0 -1003 -7 -3 -34 -9 -60 -12 l-46
-7 0 -130 0 -130 33 6 c59 13 431 74 490 81 l57 7 0 129 0 130 -65 -7 -65 -7
0 501 0 500 33 5 c17 4 70 11 117 17 47 6 95 13 108 15 22 5 22 4 22 -86 l0
-91 33 5 c17 3 68 9 112 12 128 10 115 -15 115 231 l0 214 -37 -1 c-21 -1 -47
-3 -58 -5z"/>
<path d="M8190 4500 l0 -129 63 -19 62 -18 3 -502 c1 -276 -2 -502 -6 -502 -5
0 -31 7 -58 15 -27 8 -52 15 -56 15 -5 0 -8 -57 -8 -128 l0 -127 143 -39 c210
-57 645 -203 865 -290 107 -42 196 -76 198 -76 2 0 4 82 4 183 l0 183 -143 57
c-78 31 -146 57 -150 57 -4 0 -7 -22 -7 -48 0 -27 -2 -51 -5 -54 -5 -5 -429
141 -452 155 -19 12 -19 397 0 397 7 0 102 -31 212 -70 110 -38 201 -70 202
-70 2 0 3 51 3 114 l0 114 -27 11 c-16 6 -111 40 -213 75 l-185 64 -3 173 c-1
95 0 179 2 186 4 9 68 -9 233 -66 l228 -78 3 -49 3 -49 140 -55 c78 -30 145
-56 150 -58 5 -2 9 69 9 170 l0 173 -58 24 c-326 135 -734 274 -1079 369 l-73
20 0 -128z"/>
<path d="M3155 4451 c-110 -38 -239 -83 -287 -101 l-87 -32 -126 -175 -125
-175 0 -204 0 -204 83 -55 83 -56 70 27 c104 39 518 184 527 184 4 0 6 -99 5
-221 l-3 -221 -210 -73 c-115 -40 -218 -76 -227 -80 -16 -6 -18 1 -18 79 0 53
-4 86 -11 86 -5 0 -75 -26 -155 -57 l-145 -58 3 -94 3 -95 112 -69 112 -69
193 70 c106 38 240 85 297 103 l105 34 133 167 133 167 0 244 0 244 -95 61
-96 62 -287 -100 c-158 -55 -290 -100 -295 -100 -4 0 -6 77 -5 171 l3 171 225
79 c124 43 226 79 228 79 1 0 2 -25 2 -55 0 -30 2 -55 4 -55 3 0 40 11 83 24
43 13 113 34 156 47 l77 22 0 68 0 69 -120 80 c-66 44 -125 80 -132 80 -7 0
-103 -31 -213 -69z"/>
</g>
</svg>
