<?xml version="1.0" standalone="no"?>
<!DOCTYPE svg PUBLIC "-//W3C//DTD SVG 20010904//EN"
 "http://www.w3.org/TR/2001/REC-SVG-20010904/DTD/svg10.dtd">
<svg version="1.0" xmlns="http://www.w3.org/2000/svg"
 width="2400.000000pt" height="2400.000000pt" viewBox="0 0 2400.000000 2400.000000"
 preserveAspectRatio="xMidYMid meet">

<g transform="translate(0.000000,2400.000000) scale(0.100000,-0.100000)"
fill="#000000" stroke="none">
<path d="M13860 22097 c0 -2 23 -66 51 -142 63 -175 162 -486 227 -715 387
-1354 510 -2647 371 -3895 -172 -1552 -780 -3030 -1724 -4190 -347 -426 -792
-875 -1270 -1280 -985 -835 -2281 -1664 -4057 -2595 -152 -79 -276 -146 -274
-147 1 -2 301 108 667 243 2605 962 3393 1225 4243 1415 73 16 111 33 220 96
1175 683 2170 1545 2874 2491 467 629 816 1292 1053 2002 641 1927 652 3908
27 5318 -28 62 -48 115 -45 118 6 6 301 -192 477 -320 1001 -732 1761 -1633
2205 -2616 293 -648 454 -1276 527 -2055 20 -213 17 -890 -5 -1125 -116 -1235
-507 -2441 -1124 -3469 -95 -159 -259 -411 -267 -411 -1 0 -81 16 -177 35
-804 163 -1537 235 -2374 236 -500 0 -874 -20 -1325 -71 -315 -36 -317 -37
-55 -39 1791 -10 3247 -324 4322 -933 291 -164 544 -352 765 -566 215 -209
393 -446 475 -628 15 -35 30 -63 33 -63 7 0 371 564 568 879 540 865 839 1513
1031 2240 226 851 279 1792 160 2840 -175 1543 -703 2758 -1645 3785 -140 152
-443 449 -594 581 -1090 953 -2579 1799 -4984 2830 -326 140 -376 160 -376
151z"/>
<path d="M2746 7343 c-25 -84 -76 -286 -73 -289 2 -3 33 -9 68 -15 216 -34
342 -104 406 -226 44 -82 57 -157 49 -283 -9 -149 -45 -298 -294 -1210 -358
-1312 -408 -1535 -419 -1890 -6 -193 4 -296 42 -444 95 -366 363 -680 745
-875 194 -98 394 -160 645 -197 142 -21 532 -30 691 -15 801 76 1316 429 1687
1158 175 345 212 461 591 1863 319 1180 368 1345 456 1543 79 176 134 261 240
367 126 127 230 181 402 211 47 8 69 16 72 27 12 40 76 280 76 286 0 3 -396 6
-880 6 -484 0 -880 -2 -880 -4 0 -2 -18 -71 -40 -152 -22 -81 -39 -149 -37
-150 1 -1 39 -7 84 -14 232 -31 355 -126 424 -327 48 -140 46 -380 -5 -643
-29 -147 -518 -2090 -571 -2265 -247 -822 -585 -1255 -1111 -1424 -358 -114
-863 -119 -1187 -11 -286 96 -503 288 -600 532 -106 264 -95 547 43 1113 68
281 632 2312 669 2414 145 390 338 550 745 618 l50 8 26 120 c15 66 29 135 33
153 l7 32 -1075 0 c-1014 0 -1074 -1 -1079 -17z"/>
<path d="M9269 7358 c0 -2 -17 -72 -38 -155 l-38 -153 36 -5 c96 -14 202 -39
261 -61 197 -74 354 -221 458 -430 l30 -60 -404 -1475 c-424 -1546 -474 -1720
-556 -1939 -158 -423 -296 -624 -497 -725 -63 -32 -164 -55 -242 -55 l-55 0
-44 -143 c-23 -78 -45 -150 -48 -160 -4 -16 42 -17 898 -15 l903 3 38 143 c25
99 34 144 26 147 -7 2 -41 6 -77 10 -183 18 -341 71 -419 141 -98 88 -150 244
-137 409 7 90 43 303 76 445 12 52 186 687 385 1411 200 723 367 1331 372
1349 9 32 63 -72 1057 -2013 l1048 -2047 440 0 c412 0 440 1 434 17 -4 10 -92
181 -197 382 -176 338 -189 366 -180 395 6 17 211 754 455 1638 245 883 464
1664 487 1735 152 471 317 742 515 845 80 42 133 58 224 67 l65 6 31 120 c17
66 34 132 38 148 l6 27 -858 0 -858 0 -28 -135 c-16 -75 -27 -138 -24 -140 2
-2 46 -9 98 -16 174 -21 298 -73 371 -157 117 -133 140 -393 64 -757 -33 -160
-814 -2955 -825 -2955 -3 1 -490 935 -1082 2078 l-1078 2077 -565 3 c-311 1
-565 1 -566 0z"/>
<path d="M16008 7205 l-45 -154 46 -6 c266 -35 403 -99 470 -217 62 -108 62
-229 -1 -487 -59 -248 -930 -3367 -964 -3455 -143 -370 -346 -530 -732 -578
l-92 -11 -19 -66 c-11 -36 -29 -100 -41 -141 -12 -41 -24 -83 -26 -92 -5 -17
71 -18 1498 -18 1497 0 1642 3 1903 36 687 86 1195 344 1459 739 263 392 272
977 21 1356 -87 131 -256 292 -410 390 -145 93 -362 186 -557 240 -62 17 -114
33 -116 34 -1 1 46 10 105 20 266 43 526 124 728 225 448 226 720 596 754
1030 33 416 -109 772 -397 993 -183 142 -356 213 -615 256 -307 51 -605 61
-1863 61 l-1061 0 -45 -155z m2167 -166 c208 -21 388 -69 540 -144 200 -99
323 -248 387 -470 20 -71 23 -101 23 -275 0 -217 -14 -297 -77 -448 -68 -163
-231 -357 -388 -460 -154 -102 -405 -198 -640 -245 -242 -49 -387 -61 -752
-62 -185 0 -340 3 -344 7 -13 14 412 1595 499 1856 l81 242 35 1 c20 1 88 5
151 9 131 8 337 4 485 -11z m-545 -2464 c243 -32 468 -94 624 -172 195 -97
348 -258 422 -443 57 -141 67 -201 68 -410 1 -212 -7 -275 -56 -424 -92 -286
-285 -495 -592 -642 -275 -131 -633 -193 -1046 -181 -483 15 -648 128 -667
457 -4 71 0 126 16 219 22 127 406 1578 423 1596 25 28 598 28 808 0z"/>
</g>
</svg>
