<?xml version="1.0" standalone="no"?>
<!DOCTYPE svg PUBLIC "-//W3C//DTD SVG 20010904//EN"
 "http://www.w3.org/TR/2001/REC-SVG-20010904/DTD/svg10.dtd">
<svg version="1.0" xmlns="http://www.w3.org/2000/svg"
 width="429.000000pt" height="323.000000pt" viewBox="0 0 429.000000 323.000000"
 preserveAspectRatio="xMidYMid meet">

<g transform="translate(0.000000,323.000000) scale(0.100000,-0.100000)"
fill="#000000" stroke="none">
<path d="M2076 3171 c-3 -4 -56 -8 -117 -9 -106 0 -113 -1 -130 -23 -16 -21
-21 -22 -38 -11 -23 13 -52 16 -50 5 3 -19 -3 -21 -31 -13 -16 5 -32 5 -35 0
-3 -5 8 -11 25 -15 35 -8 37 -15 10 -46 -19 -22 -21 -23 -30 -6 -6 9 -15 17
-20 17 -5 0 -7 -8 -3 -17 6 -16 4 -16 -16 2 -19 16 -24 17 -31 5 -6 -8 -10
-20 -10 -26 0 -6 -7 -18 -17 -25 -15 -13 -16 -11 -9 14 7 28 -7 38 -18 12 -3
-8 -14 -15 -25 -15 -10 0 -22 -8 -25 -17 -5 -11 -9 -14 -14 -6 -4 6 -16 12
-26 14 -16 3 -11 9 23 33 23 16 40 31 38 32 -4 4 -217 -70 -251 -87 -11 -6
-29 -21 -38 -33 -10 -12 -18 -15 -18 -8 0 10 -3 10 -13 0 -8 -6 -11 -23 -9
-36 3 -17 1 -23 -7 -18 -6 4 -11 14 -11 22 0 20 -5 18 -75 -21 -53 -30 -63
-39 -67 -67 -3 -18 -1 -45 5 -61 7 -22 6 -32 -7 -46 -19 -21 -21 -51 -3 -51 7
0 36 24 65 53 48 49 51 54 37 72 -21 29 -18 40 10 41 14 1 23 -1 21 -5 -3 -4
-1 -13 4 -20 10 -17 31 -5 23 14 -4 11 2 15 23 15 33 0 57 37 42 64 -7 12 -5
16 6 16 9 0 18 -12 21 -27 4 -16 11 -36 16 -46 7 -13 5 -19 -6 -23 -8 -3 -13
-10 -10 -14 3 -5 2 -15 -1 -24 -5 -12 -10 -11 -27 9 -15 18 -26 22 -36 16 -11
-7 -10 -14 8 -40 l22 -31 -21 0 -22 0 23 -21 24 -20 -22 6 c-23 6 -32 -8 -13
-20 15 -10 12 -35 -5 -35 -8 0 -20 9 -27 20 -13 20 -38 28 -38 11 0 -23 15
-43 38 -52 24 -9 24 -10 6 -30 l-18 -20 -12 22 c-6 13 -19 24 -29 25 -10 1
-22 7 -28 13 -18 18 -28 12 -17 -8 5 -11 7 -26 4 -34 -4 -11 2 -16 17 -19 33
-5 48 -34 28 -54 -15 -14 -17 -13 -23 12 -6 21 -10 24 -16 14 -4 -7 -5 -23 0
-35 7 -18 3 -25 -20 -38 -34 -20 -51 -22 -44 -4 3 8 0 26 -5 40 -9 23 -7 29
15 43 39 26 49 52 28 75 -9 10 -25 19 -36 19 -30 0 -98 -48 -109 -78 -9 -24
-12 -25 -20 -10 -8 14 -14 15 -35 6 -16 -7 -23 -17 -19 -26 3 -9 0 -19 -6 -23
-8 -4 46 -66 151 -173 90 -91 167 -166 172 -166 5 0 6 5 2 11 -4 8 1 9 16 4
18 -6 22 -4 18 7 -3 8 0 22 8 33 8 10 14 29 14 42 0 16 4 21 15 17 20 -8 19
15 -2 38 -15 17 -15 18 5 18 16 0 22 -6 22 -24 0 -13 6 -28 13 -35 11 -8 13
-4 9 20 -3 20 0 34 9 39 19 13 29 2 29 -30 0 -24 3 -28 18 -23 15 6 15 5 3
-10 -15 -19 -1 -23 17 -5 9 9 12 7 12 -12 1 -23 2 -23 11 -6 9 14 13 16 20 5
4 -8 1 -25 -9 -42 -13 -21 -22 -27 -39 -22 -13 3 -23 1 -23 -5 0 -6 -12 -15
-26 -21 -15 -5 -24 -12 -20 -16 12 -12 -25 -41 -46 -35 -33 8 -18 -18 41 -73
30 -28 51 -45 48 -38 -4 6 -3 14 2 17 10 6 24 -21 17 -33 -2 -3 9 -22 26 -41
19 -22 31 -31 35 -22 7 17 28 15 44 -5 13 -16 12 -17 -3 -5 -9 8 -22 11 -28 7
-16 -10 -12 -25 8 -25 20 0 52 -29 52 -47 0 -16 36 -44 45 -36 4 5 5 3 2 -3
-3 -6 8 -24 25 -40 18 -16 27 -22 20 -13 -23 31 -10 129 18 129 15 0 12 -22
-6 -48 -18 -26 -12 -41 9 -24 8 7 17 9 20 6 11 -11 37 24 37 50 0 16 6 26 14
26 8 0 16 7 20 15 4 11 -2 15 -25 15 -18 0 -28 4 -24 10 3 6 2 10 -4 10 -5 0
-13 -4 -16 -10 -3 -5 -13 -10 -21 -10 -16 0 -54 35 -54 50 0 6 -11 16 -25 22
-14 6 -25 15 -25 20 0 4 -5 8 -11 8 -6 0 -8 -8 -4 -19 4 -14 0 -20 -20 -23
-14 -3 -28 -2 -30 3 -6 8 34 82 47 87 4 2 8 12 8 23 0 10 5 19 10 19 6 0 10
-11 10 -25 0 -17 4 -23 14 -19 10 4 16 -5 21 -25 4 -17 11 -34 17 -37 7 -4 8
5 3 26 -7 30 -6 32 16 25 13 -4 43 -15 65 -25 28 -13 53 -17 78 -13 29 4 36 2
36 -11 0 -24 16 -20 40 11 19 24 23 26 42 14 20 -12 24 -11 46 15 13 16 22 22
19 14 -6 -19 16 -40 32 -30 16 9 -10 64 -33 73 -9 4 -22 23 -31 43 -14 35 -13
54 5 54 10 0 62 -46 61 -54 -3 -25 1 -27 12 -6 8 17 22 26 42 28 17 2 34 7 39
12 5 5 -16 6 -48 3 -34 -4 -56 -2 -56 4 0 13 34 43 48 43 7 0 12 5 12 10 0 15
-26 12 -40 -5 -7 -8 -17 -15 -23 -15 -6 0 -1 11 12 24 14 15 29 22 45 19 13
-3 27 0 30 6 5 7 -2 11 -16 12 -13 0 -31 2 -41 4 -23 4 -69 -34 -63 -52 7 -17
-9 -16 -50 3 -30 15 -32 18 -18 28 18 13 46 85 38 97 -2 4 1 19 7 33 10 21 17
24 38 19 14 -3 23 -2 19 2 -9 10 11 37 22 30 4 -3 7 3 6 12 0 10 9 19 23 23
14 3 26 11 29 18 5 15 -10 16 -26 0 -9 -9 -12 -8 -12 5 0 9 -4 17 -10 17 -5 0
-10 -7 -10 -16 0 -26 -40 -74 -62 -74 -17 0 -20 4 -15 30 5 23 3 28 -8 24 -18
-7 -32 24 -34 81 -2 37 -21 -6 -21 -47 0 -24 7 -44 20 -56 28 -26 36 -74 16
-91 -9 -8 -16 -24 -16 -37 0 -26 -42 -60 -60 -49 -13 8 -2 52 23 90 l21 30
-23 -20 c-29 -25 -50 -65 -44 -85 3 -10 -1 -8 -11 4 -21 25 -20 36 4 66 21 27
26 45 9 35 -6 -4 -21 3 -35 16 -26 24 -35 8 -10 -20 16 -19 4 -61 -17 -61 -36
0 -77 14 -77 26 0 7 15 24 33 38 20 16 26 26 16 26 -8 0 -28 -13 -44 -30 -34
-35 -50 -38 -65 -10 -12 23 -32 27 -24 5 4 -9 0 -15 -10 -15 -9 0 -16 -4 -16
-10 0 -14 -17 -12 -32 4 -11 12 -16 12 -32 -2 -18 -16 -18 -16 -6 8 7 14 24
37 38 53 14 15 22 27 16 27 -5 0 14 11 41 24 39 19 46 26 33 31 -10 4 -18 11
-18 15 0 4 -7 24 -15 44 -14 32 -18 35 -36 25 -12 -6 -18 -17 -15 -25 7 -19
-22 -30 -37 -15 -9 10 -8 15 5 25 11 8 14 16 8 22 -14 14 4 35 31 35 13 -1 34
-1 47 -1 15 0 26 -9 32 -25 5 -14 21 -31 36 -37 15 -7 32 -28 41 -50 8 -21 19
-35 25 -32 5 3 7 12 4 19 -3 9 3 15 17 17 16 2 22 10 23 34 2 48 22 77 47 70
12 -3 30 -6 40 -6 9 0 17 -7 17 -15 0 -8 7 -15 15 -15 8 0 15 5 15 10 0 6 -4
10 -10 10 -5 0 -10 4 -10 10 0 5 7 7 15 4 24 -9 36 5 23 26 -11 18 -14 18 -30
3 -15 -13 -22 -14 -48 -3 -16 7 -27 16 -24 21 3 5 10 7 15 4 8 -5 14 54 10 91
-1 6 9 16 21 23 l23 12 -22 -5 c-13 -2 -23 0 -23 5 0 19 37 8 61 -18 13 -14
19 -23 13 -20 -16 9 -36 -17 -28 -37 9 -22 37 -20 52 5 12 18 10 25 -13 55
-26 33 -64 52 -84 40 -12 -8 -97 51 -95 65 1 5 2 15 3 22 1 12 16 16 69 18 12
1 22 5 22 9 0 13 -23 17 -52 9 -29 -8 -38 -3 -38 18 0 10 6 12 20 8 14 -4 20
-2 20 9 0 24 20 29 40 11 28 -25 37 2 9 31 -16 17 -20 27 -12 35 7 7 13 7 17
1 3 -6 24 -8 45 -5 37 5 41 3 47 -22 3 -14 21 -41 39 -58 44 -43 52 -72 25
-87 -11 -6 -25 -8 -30 -5 -5 3 -8 -3 -7 -14 1 -15 4 -17 14 -9 21 17 45 2 38
-24 -6 -19 -5 -21 6 -10 22 20 48 15 47 -10 -1 -13 -5 -28 -10 -34 -5 -7 -4
-41 2 -80 11 -67 7 -83 -21 -87 -25 -4 -38 -17 -32 -33 3 -9 12 -13 21 -9 8 3
19 0 24 -7 6 -10 8 -9 8 4 0 9 4 19 9 22 4 3 6 -6 3 -19 -5 -31 14 -33 21 -3
4 14 0 30 -11 43 -9 11 -10 14 -2 8 8 -7 21 -13 30 -13 11 1 9 6 -8 20 -30 25
-34 90 -9 139 14 27 15 36 5 43 -10 6 -10 10 2 17 18 12 31 5 23 -14 -3 -10 1
-15 15 -15 11 0 19 -6 19 -12 -1 -25 16 -78 24 -78 5 0 9 7 9 15 0 9 6 12 15
9 12 -5 15 2 15 34 0 26 -5 42 -15 46 -8 3 -15 12 -15 21 0 8 -6 15 -12 16 -7
1 -22 2 -32 3 -33 2 -28 23 7 30 35 6 76 41 64 53 -4 3 -15 -1 -25 -10 -29
-27 -79 -16 -130 29 -24 21 -54 45 -66 52 -11 8 -29 29 -38 47 -15 30 -15 35
-1 47 9 7 44 13 89 13 53 0 69 -3 54 -9 -22 -10 -21 -33 1 -27 32 8 59 9 65 0
3 -5 13 -9 22 -8 12 0 11 3 -5 9 -30 12 -29 24 1 38 24 11 25 9 29 -26 3 -33
4 -32 5 11 l2 47 -39 0 c-22 0 -42 -4 -45 -9z m-406 -230 c0 -22 4 -51 10 -65
8 -22 6 -25 -18 -28 -21 -2 -29 -11 -37 -35 -7 -27 -14 -33 -36 -33 -29 0 -48
28 -27 41 9 6 9 13 -1 35 -15 34 -2 51 28 34 15 -8 20 -17 16 -30 -3 -10 -2
-21 3 -24 6 -3 12 6 15 19 2 14 1 28 -3 30 -4 3 -11 16 -14 30 -7 29 19 65 46
65 14 0 18 -8 18 -39z m-138 -3 c-8 -8 -9 -4 -5 13 4 13 8 18 11 10 2 -7 -1
-18 -6 -23z m-12 -30 c0 -13 -23 -5 -28 10 -2 7 2 10 12 6 9 -3 16 -11 16 -16z
m507 -12 c-4 -9 -13 -13 -22 -10 -20 8 -19 22 3 26 22 5 26 2 19 -16z m-534
-14 c-2 -7 4 -9 15 -5 16 6 16 5 0 -14 -10 -11 -18 -27 -18 -36 0 -24 -11 -21
-37 11 -19 24 -22 25 -23 8 0 -15 -3 -17 -12 -8 -17 17 9 44 36 37 12 -3 15
-2 8 1 -6 3 -9 10 -6 15 8 14 40 6 37 -9z m225 -37 c-3 -3 -9 2 -12 12 -6 14
-5 15 5 6 7 -7 10 -15 7 -18z m30 -10 c-3 -3 -9 2 -12 12 -6 14 -5 15 5 6 7
-7 10 -15 7 -18z m4 -37 c-7 -7 -12 -8 -12 -2 0 14 12 26 19 19 2 -3 -1 -11
-7 -17z m-222 -33 c11 -13 8 -15 -19 -15 -30 0 -39 9 -24 23 11 11 30 8 43 -8z
m70 -21 c0 -8 -4 -12 -10 -9 -5 3 -10 10 -10 16 0 5 5 9 10 9 6 0 10 -7 10
-16z m60 -4 c13 -9 13 -10 0 -9 -8 0 -24 4 -35 9 l-20 9 20 0 c11 0 27 -4 35
-9z m-96 -15 c22 -8 43 -12 48 -9 4 3 8 2 8 -3 -1 -13 -50 -45 -50 -33 0 7
-14 11 -32 10 -49 -3 -52 -2 -66 21 -8 12 -9 18 -3 15 5 -4 12 -2 16 4 8 13
32 12 79 -5z m140 -30 c16 -24 16 -27 -1 -55 -19 -33 -52 -39 -97 -19 -32 15
-45 44 -16 36 18 -5 78 33 88 56 5 11 8 9 26 -18z m-819 -145 c3 -5 1 -10 -4
-10 -6 0 -11 5 -11 10 0 6 2 10 4 10 3 0 8 -4 11 -10z m94 -18 c-8 -3 -21 -11
-29 -18 -22 -19 -49 -2 -31 20 7 9 17 14 21 11 5 -3 12 -1 15 5 5 8 12 7 22
-2 12 -10 13 -13 2 -16z m435 22 c8 -3 12 -12 9 -20 -3 -8 3 -21 13 -29 29
-21 10 -29 -25 -10 -32 16 -35 22 -25 49 7 18 7 18 28 10z m-407 -59 c2 -11 0
-14 -3 -7 -3 6 -12 12 -20 12 -8 0 -14 5 -14 11 0 19 35 4 37 -16z m378 -25
c-18 -20 -18 -21 5 -45 l23 -24 -27 -10 c-33 -13 -90 4 -66 20 10 5 11 12 5
17 -12 9 -16 42 -5 42 4 0 10 -7 14 -15 6 -17 26 -20 26 -5 0 14 22 39 34 40
5 0 1 -9 -9 -20z m15 -141 c0 -20 -15 -26 -24 -10 -8 13 4 42 15 35 5 -3 9
-14 9 -25z m177 15 c3 -8 12 -13 19 -10 8 3 14 -1 14 -9 0 -8 7 -15 16 -15 12
0 15 -7 12 -30 -3 -19 -1 -29 6 -27 6 2 12 12 14 23 7 41 11 47 27 34 7 -6 11
-18 8 -26 -4 -11 3 -14 31 -12 20 2 36 7 36 11 0 5 20 -9 44 -30 33 -28 46
-48 51 -75 4 -21 11 -40 16 -44 11 -7 12 -61 0 -68 -4 -3 -17 1 -27 9 -25 19
-34 19 -34 0 0 -17 4 -16 -78 -20 -55 -3 -66 -1 -92 22 -17 14 -37 23 -45 19
-8 -3 -17 -1 -21 5 -3 6 -17 15 -31 20 l-26 10 23 24 c26 28 21 32 -13 11 -12
-8 -32 -17 -44 -20 -20 -6 -21 -5 -11 33 12 48 6 71 -21 71 -19 0 -39 42 -22
48 5 2 6 13 3 24 -4 17 -2 20 12 15 10 -4 21 -7 26 -7 5 0 8 -12 7 -27 -2 -24
2 -28 26 -28 16 0 34 -8 41 -17 16 -22 22 -22 30 -3 4 10 -8 24 -37 42 -41 26
-42 27 -17 34 14 4 19 7 13 8 -7 1 -13 6 -13 11 0 16 50 11 57 -6z m-123 -162
c3 -5 -3 -21 -13 -36 -12 -17 -21 -24 -25 -17 -11 17 -24 13 -31 -9 -3 -11
-10 -20 -15 -20 -5 0 -7 8 -4 18 5 16 5 16 -9 0 -15 -19 -37 -24 -37 -8 0 5
-8 6 -17 3 -16 -6 -17 -5 -3 13 40 54 49 60 99 62 27 1 52 -2 55 -6z m-47 -98
c-3 -3 -12 -4 -19 -1 -8 3 -5 6 6 6 11 1 17 -2 13 -5z m-67 -19 c0 -8 -2 -15
-4 -15 -2 0 -6 7 -10 15 -3 8 -1 15 4 15 6 0 10 -7 10 -15z m91 -92 c13 -16
12 -17 -3 -4 -10 7 -18 15 -18 17 0 8 8 3 21 -13z m107 -102 c3 -24 0 -32 -10
-29 -7 3 -13 19 -13 36 -1 42 19 35 23 -7z"/>
<path d="M1619 2203 c-13 -16 -12 -17 4 -4 9 7 17 15 17 17 0 8 -8 3 -21 -13z"/>
<path d="M1710 2210 c0 -5 11 -10 25 -10 14 0 25 5 25 10 0 6 -11 10 -25 10
-14 0 -25 -4 -25 -10z"/>
<path d="M1690 2131 c-13 -24 -13 -51 -1 -51 5 0 19 13 30 29 18 25 19 30 5
35 -22 8 -22 8 -34 -13z"/>
<path d="M2217 3168 c-8 -5 -6 -8 6 -8 11 0 17 -5 14 -12 -2 -7 -10 -12 -16
-10 -7 1 -11 -26 -11 -85 0 -49 4 -83 8 -78 10 15 41 12 51 -4 12 -18 3 -41
-16 -41 -10 0 -13 7 -8 23 6 20 5 21 -8 5 -8 -10 -16 -15 -20 -12 -3 3 -5 -11
-4 -32 1 -20 3 -32 5 -25 8 25 28 10 24 -19 -4 -31 -17 -39 -25 -17 -3 6 -6
-61 -6 -150 -1 -139 1 -163 14 -163 8 0 15 -4 15 -10 0 -5 -6 -10 -14 -10 -11
0 -14 -37 -15 -206 -1 -113 -4 -210 -7 -215 -3 -5 1 -6 9 -3 9 3 17 -3 20 -17
5 -17 11 -20 31 -15 15 4 28 1 33 -6 11 -18 21 -118 11 -118 -14 0 -30 42 -25
66 4 25 -12 37 -34 23 -20 -13 -29 -11 -29 5 0 8 -4 17 -8 20 -4 3 -9 -140 -9
-317 -1 -207 2 -314 8 -299 5 13 7 28 3 33 -3 5 1 9 10 9 10 0 14 -10 12 -35
-3 -30 0 -35 18 -36 12 0 15 -3 9 -6 -7 -2 -13 -12 -13 -21 0 -12 -3 -13 -12
-4 -31 31 -38 14 -38 -100 l0 -111 26 24 c39 35 84 100 78 110 -3 5 0 8 8 7 7
-2 12 4 10 13 -1 11 4 16 14 15 15 -1 133 128 338 370 28 33 105 123 171 199
66 76 138 159 160 186 22 27 62 73 89 104 39 44 46 58 37 69 -14 16 0 29 21
21 8 -3 22 3 31 13 16 18 16 20 -2 36 -12 11 -21 14 -26 7 -10 -18 -25 -12
-25 9 0 11 -7 23 -15 26 -19 8 -19 23 0 30 9 4 25 -4 40 -20 14 -16 30 -24 37
-20 11 7 -5 24 -46 49 -15 9 -15 12 -3 30 13 16 17 17 31 6 9 -7 16 -22 16
-32 0 -11 4 -19 8 -19 4 0 8 -10 9 -21 1 -12 7 -27 14 -33 9 -8 10 -7 6 7 -4
11 -1 17 8 17 14 0 150 154 150 170 0 4 20 26 45 49 37 33 42 42 30 51 -8 5
-30 10 -49 10 -25 0 -32 4 -28 15 4 8 2 17 -3 20 -17 10 -11 25 10 25 11 0 25
-9 32 -20 18 -28 30 -25 22 7 -5 18 -2 30 8 37 13 10 1 22 -75 76 -50 35 -102
65 -116 65 -40 2 -64 -14 -58 -37 5 -17 2 -19 -21 -15 -15 2 -35 8 -46 12 -17
7 -17 6 -6 -15 11 -20 10 -22 -5 -16 -11 4 -23 -2 -37 -19 -11 -14 -24 -25
-30 -25 -6 0 -4 8 5 18 20 22 23 98 5 105 -26 9 3 19 56 21 29 0 49 4 44 7 -6
4 -5 8 3 11 8 3 -5 15 -31 31 -48 27 -215 97 -234 97 -6 0 -24 7 -41 16 -48
25 -241 71 -350 84 -154 18 -285 26 -298 18z m355 -88 c31 -31 87 -75 125 -97
54 -31 69 -44 71 -66 3 -25 1 -27 -35 -26 -36 1 -37 2 -8 8 42 9 39 35 -4 39
-24 3 -46 16 -80 50 -32 32 -55 47 -73 47 -19 0 -24 -3 -17 -11 7 -8 4 -11 -8
-10 -18 1 -52 35 -72 73 -16 31 -14 38 7 22 15 -11 15 -11 4 1 -7 8 -18 15
-24 15 -6 0 -13 5 -15 11 -2 6 11 8 34 6 30 -3 50 -16 95 -62z m-229 53 c4 -3
1 -13 -6 -21 -6 -8 -12 -25 -12 -36 0 -12 -7 -21 -15 -21 -8 0 -21 -4 -27 -8
-7 -5 -17 -5 -23 -2 -11 7 -2 64 13 83 10 13 59 17 70 5z m-43 -113 c0 -5 -4
-10 -10 -10 -5 0 -10 5 -10 10 0 6 5 10 10 10 6 0 10 -4 10 -10z m93 -35 c-2
-21 -5 -40 -8 -43 -12 -13 -22 16 -18 51 7 50 29 43 26 -8z m-89 -54 c-18 -14
-20 -21 -11 -37 6 -10 11 -26 12 -34 4 -31 17 -49 32 -43 10 4 13 0 11 -12 -2
-13 5 -18 29 -21 18 -2 34 0 37 4 2 4 -5 9 -16 9 -30 3 -45 20 -30 35 10 10
15 10 22 -2 12 -19 20 -9 23 26 2 23 8 29 26 30 12 1 25 -5 28 -13 5 -11 11
-9 29 12 13 15 25 32 27 38 8 20 25 -5 33 -47 6 -35 5 -38 -11 -32 -13 4 -16
2 -11 -9 3 -8 -2 -19 -13 -24 -10 -6 -26 -23 -36 -38 -12 -18 -13 -24 -4 -17
23 18 49 24 46 12 -1 -7 8 -17 21 -23 25 -11 29 -25 7 -25 -8 0 -15 5 -15 11
0 5 -5 7 -10 4 -6 -3 -7 -17 -4 -31 9 -35 -12 -30 -25 6 -11 33 -26 42 -16 10
8 -24 -3 -25 -33 -4 -12 8 -26 13 -31 10 -5 -3 -16 6 -25 20 -13 19 -22 23
-39 18 -12 -4 -26 -13 -30 -20 -13 -22 -37 -17 -37 8 0 12 -3 18 -7 15 -3 -4
-12 5 -20 19 -16 31 -16 37 -3 29 14 -8 13 28 -1 42 -6 6 -8 20 -5 30 8 25 44
63 59 63 7 -1 2 -9 -9 -19z m120 -22 c11 -10 -39 -23 -53 -14 -6 3 -11 15 -11
25 0 17 3 18 28 8 15 -7 31 -15 36 -19z m40 -6 c-22 -16 -25 -13 -17 15 4 18
8 20 20 10 13 -10 13 -14 -3 -25z m373 11 c19 -14 32 -28 30 -30 -7 -7 -77 36
-77 47 0 15 11 11 47 -17z m-489 -9 c7 -15 20 -25 32 -25 11 0 20 -7 20 -15 0
-8 -9 -15 -20 -15 -11 0 -20 7 -20 16 0 8 -5 12 -11 9 -6 -4 -13 2 -16 14 -3
12 -10 21 -15 21 -5 0 -6 5 -3 10 10 16 21 11 33 -15z m300 -23 c2 -7 -3 -12
-12 -12 -9 0 -16 7 -16 16 0 17 22 14 28 -4z m340 11 c-16 -2 -40 -2 -55 0
-16 2 -3 4 27 4 30 0 43 -2 28 -4z m299 -112 c11 -11 29 -19 39 -18 11 1 20
-6 22 -17 2 -10 0 -16 -6 -12 -14 8 -23 -46 -10 -61 8 -10 6 -13 -6 -13 -9 0
-16 5 -16 11 0 6 -9 9 -20 6 -17 -4 -20 0 -20 34 0 42 -14 53 -23 17 l-6 -22
-23 20 c-13 11 -35 25 -50 32 -27 11 -38 32 -18 32 6 0 10 -5 10 -12 0 -9 3
-9 12 0 9 9 18 6 39 -14 29 -28 47 -18 29 16 -9 17 -8 20 8 20 10 0 27 -9 39
-19z m-296 -1 c10 -6 19 -20 19 -30 0 -11 5 -20 10 -20 6 0 10 5 10 12 0 9 3
9 12 0 10 -10 10 -14 0 -21 -9 -5 -7 -18 9 -52 12 -24 28 -48 35 -54 7 -5 14
-23 16 -40 2 -19 9 -30 18 -30 9 0 15 -10 16 -22 2 -31 -19 -29 -48 5 -13 15
-32 31 -42 35 -10 4 -20 15 -22 25 -6 20 -55 47 -51 28 1 -6 -12 -12 -29 -14
-25 -2 -33 1 -37 17 -3 12 0 21 6 21 7 0 6 4 -2 9 -12 8 -13 14 -3 36 10 20
17 25 33 20 20 -7 21 -4 18 39 -4 48 0 53 32 36z m-299 -116 c-7 -14 -7 -21 1
-22 34 -3 65 -10 74 -15 17 -10 24 -79 10 -95 -12 -15 -13 -19 -16 -83 -1 -45
-24 -79 -42 -62 -9 9 -16 9 -30 0 -26 -16 -33 -3 -14 26 13 20 14 30 5 46 -8
15 -8 27 0 41 9 16 8 22 -5 26 -25 10 -41 -11 -25 -31 11 -14 10 -20 -13 -42
-23 -24 -29 -25 -52 -15 -27 13 -45 9 -45 -9 0 -18 -28 -39 -44 -33 -18 7 -22
-16 -6 -32 13 -13 2 -44 -15 -44 -7 0 -17 22 -22 51 -8 41 -8 53 4 65 14 13
13 17 -3 35 -16 18 -16 21 -1 36 13 14 19 14 32 3 8 -7 18 -10 22 -6 4 3 -1
12 -11 19 -11 8 -17 28 -19 59 -2 43 -5 48 -29 53 -16 4 -28 11 -28 17 0 6 6
8 14 5 8 -3 17 1 20 9 3 9 10 13 15 10 5 -4 11 0 14 6 3 10 7 10 17 1 10 -9
10 -15 1 -26 -10 -12 -3 -14 44 -13 46 1 52 3 39 13 -11 8 -14 18 -9 30 7 16
8 17 12 1 3 -11 10 -15 20 -11 12 5 15 2 10 -10 -3 -9 -2 -17 3 -17 6 0 10 -5
10 -11 0 -6 -14 -9 -32 -7 -19 2 -33 -2 -35 -10 -3 -7 1 -10 10 -6 19 7 34
-16 17 -26 -15 -9 -4 -30 16 -30 8 0 14 -9 14 -20 0 -22 -15 -27 -23 -7 -4 7
-6 8 -6 1 -1 -15 27 -39 36 -31 3 4 6 20 5 37 -1 32 14 41 21 13 3 -10 4 -6 4
10 -1 15 -7 27 -14 27 -7 0 -13 5 -13 11 0 5 4 8 9 5 5 -3 14 1 20 8 10 11 8
16 -5 24 -13 7 -14 13 -5 30 6 11 8 28 5 36 -3 9 -1 16 5 16 7 0 9 11 6 28 -4
18 1 12 15 -18 16 -33 19 -50 12 -66z m472 71 c-4 -9 0 -12 13 -9 11 3 26 -3
37 -15 16 -18 17 -21 3 -27 -8 -3 -25 0 -37 6 -11 6 -30 8 -40 5 -14 -4 -20
-2 -20 9 0 8 5 18 10 21 6 3 10 12 10 18 0 7 -4 6 -10 -3 -5 -8 -10 -10 -10
-4 0 17 10 22 30 17 10 -3 16 -11 14 -18z m-774 5 c0 -5 -4 -10 -9 -10 -6 0
-13 5 -16 10 -3 6 1 10 9 10 9 0 16 -4 16 -10z m-24 -23 c5 -1 8 -8 8 -14 -1
-7 3 -13 10 -13 6 0 11 -11 11 -23 0 -19 -5 -24 -25 -23 -14 1 -31 -6 -37 -14
-12 -14 -13 4 -4 63 0 4 6 7 12 7 5 0 7 -5 3 -12 -5 -7 -3 -8 5 -3 22 13 -4
28 -28 16 -27 -15 -27 -7 1 19 14 13 24 16 29 9 3 -6 10 -11 15 -12z m85 -20
c-1 -12 -15 -9 -19 4 -3 6 1 10 8 8 6 -3 11 -8 11 -12z m381 -6 c-10 -6 -7
-10 12 -15 27 -7 34 -20 16 -31 -5 -3 -10 -2 -10 3 0 6 -15 19 -32 31 l-33 21
30 0 c20 0 26 -3 17 -9z m-582 -31 c0 -5 -5 -10 -11 -10 -5 0 -7 5 -4 10 3 6
8 10 11 10 2 0 4 -4 4 -10z m110 -45 c0 -8 -4 -15 -10 -15 -5 0 -10 7 -10 15
0 8 5 15 10 15 6 0 10 -7 10 -15z m519 -6 c1 8 3 12 6 10 2 -3 -2 -23 -10 -44
l-13 -40 1 50 c0 34 3 43 8 30 4 -12 8 -14 8 -6z m370 -52 c8 -11 6 -13 -11
-12 -12 1 -24 7 -26 13 -5 16 23 15 37 -1z m-269 -7 c0 -5 -5 -10 -11 -10 -5
0 -7 5 -4 10 3 6 8 10 11 10 2 0 4 -4 4 -10z m30 -11 c0 -5 -4 -9 -10 -9 -5 0
-10 7 -10 16 0 8 5 12 10 9 6 -3 10 -10 10 -16z m59 -8 c18 -12 6 -43 -16 -39
-9 2 -17 13 -18 26 -2 23 10 28 34 13z m-189 -5 c0 -3 -4 -8 -10 -11 -5 -3
-10 -1 -10 4 0 6 5 11 10 11 6 0 10 -2 10 -4z m-570 -10 c0 -3 -4 -8 -10 -11
-5 -3 -10 -1 -10 4 0 6 5 11 10 11 6 0 10 -2 10 -4z m90 -5 c0 -10 -30 -24
-37 -17 -3 3 -2 9 2 15 8 13 35 15 35 2z m-156 -22 c-3 -5 -10 -7 -15 -3 -5 3
-7 10 -3 15 3 5 10 7 15 3 5 -3 7 -10 3 -15z m716 11 c8 -5 11 -13 6 -17 -5
-4 -11 -2 -13 5 -3 6 -9 10 -14 6 -5 -3 -9 0 -9 5 0 13 10 14 30 1z m-640 -40
c0 -11 -7 -20 -15 -20 -18 0 -19 12 -3 28 16 16 18 15 18 -8z m680 4 c0 -8 -4
-12 -10 -9 -5 3 -10 10 -10 16 0 5 5 9 10 9 6 0 10 -7 10 -16z m-570 -4 c0 -5
-4 -10 -10 -10 -5 0 -10 5 -10 10 0 6 5 10 10 10 6 0 10 -4 10 -10z m463 -7
c-3 -7 -9 -13 -14 -13 -16 0 -10 -26 11 -45 11 -10 18 -21 15 -23 -10 -10 -55
42 -55 63 0 27 4 31 28 31 12 0 18 -5 15 -13z m147 3 c0 -3 -4 -8 -10 -11 -5
-3 -10 -1 -10 4 0 6 5 11 10 11 6 0 10 -2 10 -4z m33 -15 c3 -14 1 -18 -9 -14
-8 3 -14 11 -14 19 0 21 17 17 23 -5z m-658 -14 c18 -14 14 -37 -6 -37 -6 0
-7 5 -4 10 3 6 2 10 -3 10 -6 0 -12 7 -16 15 -7 19 4 19 29 2z m-25 -47 c0 -5
-4 -10 -10 -10 -5 0 -10 5 -10 10 0 6 5 10 10 10 6 0 10 -4 10 -10z m-9 -55
c13 -18 35 -37 48 -40 17 -4 21 -9 13 -17 -8 -8 -15 -8 -25 0 -7 6 -24 8 -37
5 -20 -5 -22 -3 -18 15 4 13 -1 27 -13 38 -18 16 -17 34 0 34 5 0 19 -16 32
-35z m352 -26 c-5 -5 -7 7 -4 29 5 34 6 35 9 8 2 -16 0 -32 -5 -37z m323 16
c-14 -15 -16 -15 -16 -1 0 9 -6 16 -12 17 -7 0 -4 4 7 9 28 11 41 -5 21 -25z
m64 -5 c0 -5 -7 -7 -15 -4 -8 4 -12 10 -9 15 6 11 24 2 24 -11z m-445 -55
c-44 -38 -74 -48 -35 -12 25 23 60 46 70 46 3 0 -13 -15 -35 -34z m311 -30 c1
-28 2 -51 3 -52 0 -2 0 -4 -1 -5 -1 -2 5 -14 12 -28 12 -23 12 -24 -3 -11 -10
7 -17 19 -17 27 0 7 -16 28 -35 46 -44 42 -41 76 8 74 31 -2 32 -3 33 -51z
m-506 5 c0 -5 -7 -10 -16 -10 -8 0 -12 5 -9 10 3 6 10 10 16 10 5 0 9 -4 9
-10z m-55 -36 c22 -22 23 -27 11 -40 -19 -18 -26 -18 -26 1 0 12 -4 13 -19 5
-26 -13 -31 -13 -31 5 0 8 6 14 12 13 7 -2 14 7 16 20 4 28 6 28 37 -4z m-85
-14 c0 -5 -2 -10 -4 -10 -3 0 -8 5 -11 10 -3 6 -1 10 4 10 6 0 11 -4 11 -10z
m219 -12 c13 5 14 3 3 -10 -11 -13 -26 -15 -67 -9 -5 1 -1 8 9 16 12 9 24 11
29 6 5 -5 17 -7 26 -3z m-261 -41 c4 -29 19 -36 28 -12 10 25 23 17 21 -12 -2
-25 -6 -28 -32 -24 -42 4 -45 8 -45 47 0 42 23 43 28 1z m-38 -7 c0 -5 -4 -10
-10 -10 -5 0 -10 5 -10 10 0 6 5 10 10 10 6 0 10 -4 10 -10z m125 -11 c-10
-15 -25 -10 -19 6 4 8 10 12 15 9 5 -3 7 -10 4 -15z m11 -156 c-7 -7 -26 7
-26 19 0 6 6 6 15 -2 9 -7 13 -15 11 -17z m34 -14 c0 -6 -4 -7 -10 -4 -5 3
-10 11 -10 16 0 6 5 7 10 4 6 -3 10 -11 10 -16z m-80 -19 c0 -5 -2 -10 -4 -10
-3 0 -8 5 -11 10 -3 6 -1 10 4 10 6 0 11 -4 11 -10z m-120 -300 c0 -5 -5 -10
-11 -10 -5 0 -7 5 -4 10 3 6 8 10 11 10 2 0 4 -4 4 -10z m44 -266 c21 -8 20
-30 -1 -38 -17 -7 -33 9 -33 32 0 13 10 15 34 6z"/>
<path d="M2496 2865 c-3 -8 -12 -15 -20 -15 -10 0 -13 -6 -9 -16 4 -11 8 -12
13 -4 4 7 13 9 19 6 6 -4 11 -4 12 1 0 4 2 16 4 26 4 21 -11 23 -19 2z"/>
<path d="M2430 2820 c0 -5 5 -10 10 -10 6 0 10 5 10 10 0 6 -4 10 -10 10 -5 0
-10 -4 -10 -10z"/>
<path d="M2535 2587 c-9 -21 28 -67 42 -53 4 4 1 13 -8 20 -9 6 -19 20 -21 31
-5 19 -5 19 -13 2z"/>
<path d="M2495 2580 c-3 -5 -1 -10 4 -10 6 0 11 5 11 10 0 6 -2 10 -4 10 -3 0
-8 -4 -11 -10z"/>
<path d="M2555 2470 c3 -5 8 -10 11 -10 2 0 4 5 4 10 0 6 -5 10 -11 10 -5 0
-7 -4 -4 -10z"/>
<path d="M1560 3080 c0 -5 5 -10 10 -10 6 0 10 5 10 10 0 6 -4 10 -10 10 -5 0
-10 -4 -10 -10z"/>
<path d="M2030 3046 c0 -2 8 -10 18 -17 15 -13 16 -12 3 4 -13 16 -21 21 -21
13z"/>
<path d="M984 2818 c-32 -23 -40 -35 -36 -51 5 -19 6 -19 18 -2 13 17 14 16
20 -13 6 -28 8 -30 28 -20 13 7 16 13 8 16 -7 2 -19 17 -27 33 -15 28 -15 29
10 29 18 0 25 5 25 20 0 11 -1 20 -2 19 -2 0 -22 -14 -44 -31z"/>
<path d="M1186 2792 c-3 -6 -1 -14 5 -17 15 -10 25 3 12 16 -7 7 -13 7 -17 1z"/>
<path d="M850 2720 c-9 -6 -10 -10 -3 -10 6 0 15 5 18 10 8 12 4 12 -15 0z"/>
<path d="M950 2710 c6 -11 13 -20 15 -20 3 0 5 9 5 20 0 11 -7 20 -15 20 -13
0 -14 -4 -5 -20z"/>
<path d="M3470 2720 c-9 -6 -10 -10 -3 -10 6 0 15 5 18 10 8 12 4 12 -15 0z"/>
<path d="M906 2699 c-22 -32 -20 -39 8 -39 32 0 37 10 22 39 l-13 24 -17 -24z"/>
<path d="M2152 2695 c0 -16 2 -22 5 -12 2 9 2 23 0 30 -3 6 -5 -1 -5 -18z"/>
<path d="M820 2685 c0 -8 5 -15 10 -15 6 0 10 7 10 15 0 8 -4 15 -10 15 -5 0
-10 -7 -10 -15z"/>
<path d="M3485 2669 c-11 -17 1 -21 15 -4 8 9 8 15 2 15 -6 0 -14 -5 -17 -11z"/>
<path d="M3520 2645 c-13 -14 -19 -29 -15 -36 5 -7 4 -10 -2 -6 -6 4 -20 -4
-32 -17 -16 -17 -20 -30 -15 -55 5 -23 10 -29 17 -22 13 13 47 14 47 2 0 -5
-12 -14 -27 -19 -22 -8 -9 -10 60 -8 48 1 90 -1 93 -6 3 -4 -3 -8 -13 -8 -22
-1 -55 -24 -47 -33 4 -4 16 -2 27 4 10 6 33 8 49 5 26 -5 29 -4 18 9 -7 9 -9
19 -5 23 4 4 10 1 12 -6 3 -7 14 -17 25 -23 15 -8 19 -8 14 0 -9 15 7 14 22
-1 6 -6 14 -10 16 -7 3 3 -20 33 -50 67 -48 54 -59 61 -81 56 -24 -6 -25 -5
-21 19 4 21 -2 32 -32 56 l-38 30 -22 -24z m30 -15 c0 -5 -2 -10 -4 -10 -3 0
-8 5 -11 10 -3 6 -1 10 4 10 6 0 11 -4 11 -10z m40 -40 c0 -5 -4 -10 -10 -10
-5 0 -10 5 -10 10 0 6 5 10 10 10 6 0 10 -4 10 -10z m-30 -40 c0 -5 -14 -10
-31 -10 -17 0 -28 4 -24 10 3 6 17 10 31 10 13 0 24 -4 24 -10z"/>
<path d="M1913 2555 c0 -27 2 -38 4 -22 2 15 2 37 0 50 -2 12 -4 0 -4 -28z"/>
<path d="M613 2496 c-48 -51 -114 -130 -145 -174 -51 -73 -55 -82 -37 -87 21
-7 25 -20 8 -30 -6 -4 -8 -13 -5 -20 6 -16 -34 -28 -50 -14 -14 12 -48 -44
-119 -196 -109 -232 -183 -549 -185 -787 l0 -58 101 0 c99 0 102 1 137 31 20
18 55 40 78 50 23 11 49 29 57 41 40 56 48 63 56 50 5 -9 17 -11 34 -7 26 7
27 9 23 72 -3 40 -10 71 -20 82 -9 10 -16 25 -16 35 0 9 -11 21 -25 26 -29 11
-32 20 -7 20 17 0 55 -25 94 -62 13 -13 18 -33 18 -70 l0 -53 20 30 c10 17 36
44 56 61 21 18 44 51 54 77 17 45 17 46 -7 86 -34 57 -22 51 16 -7 24 -38 37
-49 56 -48 30 2 46 16 17 16 -30 0 -49 36 -51 95 -1 28 -4 58 -7 68 -7 22 12
154 33 231 16 54 16 59 0 68 -9 5 -17 17 -17 26 0 10 -4 22 -10 28 -6 6 -6 15
0 24 7 10 10 11 10 3 0 -7 5 -13 10 -13 6 0 10 7 10 15 0 8 -4 15 -10 15 -5 0
-10 5 -10 11 0 6 11 8 28 4 l28 -6 12 75 c6 41 23 100 37 131 l25 57 -100 99
c-56 54 -102 99 -104 99 -2 0 -44 -42 -93 -94z m206 -65 c14 -9 11 -12 -36
-38 -20 -10 -23 -9 -23 6 0 33 31 50 59 32z m-220 -55 c-9 -8 -10 -7 -5 7 3
10 7 24 7 30 1 7 3 4 6 -7 3 -10 -1 -23 -8 -30z m-72 -188 c-3 -8 -6 -5 -6 6
-1 11 2 17 5 13 3 -3 4 -12 1 -19z m273 -24 c0 -17 -22 -14 -28 4 -2 7 3 12
12 12 9 0 16 -7 16 -16z m-432 -189 c-2 -2 -14 -5 -28 -7 -16 -2 -25 2 -25 11
0 7 11 28 25 46 l25 33 3 -40 c2 -22 2 -41 0 -43z m146 -197 c-10 -16 -22 -7
-17 13 4 15 8 17 14 8 4 -7 5 -17 3 -21z m86 -145 c-1 -36 -3 -44 -10 -31 -9
14 -3 78 6 78 2 0 4 -21 4 -47z m40 8 c0 -11 -4 -23 -10 -26 -6 -4 -10 5 -10
19 0 14 5 26 10 26 6 0 10 -9 10 -19z m-486 -88 c-6 -22 -4 -25 10 -20 9 4 16
2 16 -2 0 -5 14 -8 30 -7 33 2 53 -14 55 -45 2 -22 3 -22 -29 -8 -14 7 -22 17
-19 25 7 18 -11 18 -26 0 -10 -11 -8 -17 6 -26 10 -6 14 -9 8 -7 -79 30 -85
39 -65 91 13 34 22 33 14 -1z m160 -11 c14 3 23 1 20 -3 -3 -5 -12 -9 -21 -9
-10 0 -14 -6 -10 -20 7 -29 -8 -25 -21 5 -14 31 -16 57 -3 36 5 -8 19 -12 35
-9z m-133 -99 c13 -16 12 -17 -3 -4 -10 7 -18 15 -18 17 0 8 8 3 21 -13z"/>
<path d="M150 1511 c0 -17 29 -20 42 -3 12 15 11 16 -4 3 -12 -9 -18 -10 -18
-2 0 6 -4 11 -10 11 -5 0 -10 -4 -10 -9z"/>
<path d="M233 1500 c-1 -11 2 -20 7 -20 4 0 7 7 6 15 -3 23 -12 26 -13 5z"/>
<path d="M2151 2554 c0 -11 3 -14 6 -6 3 7 2 16 -1 19 -3 4 -6 -2 -5 -13z"/>
<path d="M1056 2522 c-3 -5 1 -15 9 -22 21 -17 27 -9 10 13 -7 10 -16 14 -19
9z"/>
<path d="M1713 2483 c9 -2 23 -2 30 0 6 3 -1 5 -18 5 -16 0 -22 -2 -12 -5z"/>
<path d="M1993 2460 c-3 -10 -17 -24 -32 -30 -22 -8 -18 -9 26 -6 36 2 57 -1
64 -10 6 -8 16 -14 22 -14 5 0 3 8 -6 18 -10 10 -17 23 -17 28 0 5 -12 14 -26
21 -23 11 -27 10 -31 -7z"/>
<path d="M3367 2443 c3 -9 0 -11 -10 -8 -9 4 -30 -12 -58 -45 -24 -28 -67 -77
-94 -108 -49 -56 -133 -153 -332 -385 -57 -66 -101 -123 -98 -127 3 -4 -4 -10
-15 -13 -25 -7 -27 -47 -2 -47 20 0 55 57 45 73 -4 7 1 6 10 -2 10 -8 20 -11
24 -7 4 3 -2 13 -13 20 -10 8 -16 17 -13 21 4 3 20 -6 35 -22 15 -15 34 -27
41 -25 7 2 13 -6 13 -18 0 -17 -4 -19 -25 -14 -40 10 -72 -3 -77 -31 -5 -24 1
-29 30 -26 22 3 13 -17 -10 -22 l-23 -4 23 -8 c12 -4 22 -14 22 -21 0 -18 15
-18 33 1 8 8 17 11 20 8 3 -3 13 2 22 11 21 20 45 21 45 1 0 -8 9 -15 19 -15
10 0 21 -7 25 -15 3 -8 15 -15 27 -15 12 0 23 -8 26 -19 3 -11 11 -22 18 -25
8 -3 12 0 10 7 -3 7 7 21 22 31 14 11 23 14 19 8 -4 -7 -2 -12 3 -12 6 0 11
-7 11 -15 0 -8 -4 -15 -9 -15 -6 0 -6 -12 -1 -29 4 -16 6 -32 2 -35 -3 -3 0
-6 7 -6 8 0 11 -7 7 -15 -3 -8 -1 -15 3 -15 5 0 7 -9 4 -20 -6 -24 21 -38 41
-21 11 9 15 8 20 -5 10 -26 7 -36 -9 -30 -19 7 -45 -3 -45 -18 0 -6 10 -16 23
-21 12 -6 23 -20 25 -33 3 -19 6 -21 18 -11 12 10 14 5 14 -27 0 -22 3 -55 6
-75 l6 -35 59 -2 c53 -2 59 0 59 18 0 13 10 24 25 30 17 6 25 17 25 33 0 13 5
28 10 33 8 8 5 21 -7 43 -16 28 -23 32 -58 30 -65 -3 -71 -1 -50 15 18 13 18
15 2 30 -20 20 -22 31 -4 19 6 -4 20 -6 29 -5 10 2 26 -1 36 -7 15 -8 32 -4
73 17 47 24 54 31 51 55 -1 15 -14 44 -28 64 -14 22 -22 44 -18 55 3 10 1 18
-4 18 -6 0 -8 9 -5 20 3 11 1 20 -4 20 -5 0 -10 30 -11 67 -3 62 -5 69 -39
100 -23 22 -43 33 -55 30 -22 -6 -24 6 -3 23 8 7 13 16 10 20 -3 4 2 11 11 14
11 4 15 2 11 -7 -4 -10 1 -13 17 -10 16 3 29 19 43 54 21 48 21 48 1 55 -11 3
-30 3 -44 0 -24 -6 -32 7 -16 29 9 13 54 17 62 6 8 -14 44 -21 58 -12 10 6 10
14 2 35 -16 43 -12 51 14 26 14 -12 32 -43 41 -69 8 -25 29 -63 46 -84 28 -35
30 -40 19 -73 -10 -30 -9 -38 5 -54 10 -11 24 -16 33 -13 13 5 14 -1 9 -41 -5
-37 -4 -48 9 -53 9 -3 12 -9 7 -12 -5 -3 -14 -22 -19 -41 -6 -21 -16 -34 -24
-32 -17 4 -30 -17 -30 -50 0 -25 -2 -27 -26 -18 -32 13 -44 13 -44 0 0 -5 10
-11 23 -11 16 -1 18 -2 5 -6 -22 -5 -24 -23 -3 -23 8 0 15 -9 15 -20 0 -11 7
-20 15 -20 10 0 15 -10 15 -29 0 -32 -30 -47 -61 -30 -25 13 -35 11 -21 -3 13
-13 16 -64 4 -72 -4 -2 -9 -28 -10 -57 -1 -29 -6 -56 -12 -59 -5 -3 -7 -16 -3
-28 5 -21 11 -22 93 -22 l88 0 7 39 c7 45 30 60 45 31 6 -12 20 -19 33 -19
l22 2 -22 4 c-13 3 -23 12 -23 22 0 9 -5 22 -11 28 -15 15 36 92 71 110 18 9
20 13 10 17 -8 2 -22 6 -31 9 -9 3 -19 15 -22 26 -4 16 2 25 22 35 30 16 111
100 111 116 0 5 9 10 21 10 11 0 29 5 40 11 17 9 21 7 26 -10 6 -22 19 -28 25
-10 2 7 12 7 31 0 35 -14 57 -14 57 -1 0 6 -8 10 -19 10 -10 0 -25 10 -33 22
-13 20 -17 21 -32 9 -14 -12 -20 -11 -39 8 -13 11 -28 21 -34 21 -6 0 -16 7
-23 15 -7 9 -20 13 -28 10 -9 -3 -12 0 -9 9 6 15 -46 121 -65 132 -6 4 -19 -3
-29 -14 -22 -27 -41 -28 -57 -2 -10 17 -10 20 3 20 21 0 19 13 -6 41 -14 17
-22 20 -25 12 -9 -22 -24 -14 -24 11 0 34 39 43 63 14 26 -32 41 -9 40 59 -1
43 -6 60 -20 70 -38 28 -103 92 -103 103 0 6 -10 15 -22 20 -13 6 -30 14 -38
19 -8 6 -28 13 -43 16 -19 4 -27 11 -23 20 5 13 -24 108 -37 122 -4 3 -7 16
-7 27 -1 20 -2 20 -14 4 -19 -26 -26 -22 -26 15 0 18 -7 42 -15 54 -17 24 -66
38 -58 16z m54 -89 c5 -15 8 -29 5 -31 -2 -2 -8 10 -14 26 -13 38 -5 41 9 5z
m55 -135 c4 -27 11 -52 15 -55 16 -9 10 -24 -10 -24 -14 0 -18 5 -14 18 2 11
-2 34 -9 53 -15 35 -13 73 2 64 5 -3 12 -28 16 -56z m-186 -9 c0 -5 -2 -10 -4
-10 -3 0 -8 5 -11 10 -3 6 -1 10 4 10 6 0 11 -4 11 -10z m0 -29 c0 -5 16 -19
35 -32 42 -29 43 -40 9 -56 -33 -16 -47 -8 -41 23 3 15 0 24 -9 24 -23 0 -44
-12 -44 -26 0 -8 -9 -14 -20 -14 -11 0 -20 5 -20 11 0 5 6 7 13 4 6 -4 3 0 -7
9 -10 8 -23 13 -27 10 -5 -3 -9 0 -9 6 0 7 7 10 14 7 19 -7 78 21 71 34 -4 5
3 9 14 9 12 0 21 -4 21 -9z m350 -151 c5 0 10 -12 12 -27 2 -20 8 -27 20 -25
28 4 33 -20 8 -40 -28 -23 -37 -16 -66 51 -14 33 -15 46 -6 49 6 2 13 13 13
25 2 17 3 15 6 -5 2 -16 8 -28 13 -28z m-323 -7 c-11 -11 -17 -13 -17 -5 0 7
5 12 11 12 5 0 8 4 4 10 -3 5 -13 6 -23 3 -15 -6 -15 -5 -3 11 13 15 16 16 30
2 14 -15 14 -18 -2 -33z m8 -44 c12 -19 -5 -23 -22 -6 -16 16 -16 17 -1 17 9
0 20 -5 23 -11z m-61 -65 c9 -3 16 -11 16 -16 0 -7 -5 -6 -13 1 -8 6 -17 8
-20 4 -4 -3 -7 -1 -7 5 0 14 2 14 24 6z m-34 -36 c0 -6 -6 -5 -15 2 -8 7 -15
14 -15 16 0 2 7 1 15 -2 8 -4 15 -11 15 -16z m417 -10 c-3 -8 -6 -5 -6 6 -1
11 2 17 5 13 3 -3 4 -12 1 -19z m-7 -42 c0 -3 -4 -8 -10 -11 -5 -3 -10 -1 -10
4 0 6 5 11 10 11 6 0 10 -2 10 -4z m62 -168 c-6 -6 -7 0 -4 19 5 21 7 23 10 9
2 -10 0 -22 -6 -28z m-597 2 c10 -11 16 -20 13 -20 -3 0 -13 9 -23 20 -10 11
-16 20 -13 20 3 0 13 -9 23 -20z m125 0 c0 -5 -4 -10 -10 -10 -5 0 -10 5 -10
10 0 6 5 10 10 10 6 0 10 -4 10 -10z m60 -20 c0 -5 -4 -10 -10 -10 -5 0 -10 5
-10 10 0 6 5 10 10 10 6 0 10 -4 10 -10z m480 -9 c0 -5 -7 -11 -15 -15 -15 -5
-20 5 -8 17 9 10 23 9 23 -2z m-530 -16 c5 3 16 -7 24 -23 13 -25 13 -29 0
-29 -14 0 -18 10 -15 35 1 7 -3 11 -10 10 -6 -2 -13 3 -14 10 -2 7 -1 8 2 2 2
-5 9 -8 13 -5z m90 -20 c6 3 10 -3 10 -14 0 -10 3 -27 7 -37 4 -12 2 -15 -8
-12 -8 3 -13 14 -11 26 2 12 -2 22 -8 22 -6 0 -8 -4 -5 -10 11 -17 -7 -11 -21
8 -19 25 -17 34 6 22 11 -6 25 -8 30 -5z m470 -47 c0 -6 -7 -5 -15 2 -8 7 -15
17 -15 22 0 6 7 5 15 -2 8 -7 15 -17 15 -22z m-524 -65 c9 -3 20 -1 27 6 13
13 57 15 57 1 0 -5 -8 -14 -17 -20 -17 -11 -17 -11 0 -6 12 4 17 0 17 -14 0
-27 -36 -26 -50 0 -8 14 -17 19 -29 15 -20 -6 -32 20 -29 65 1 18 2 16 5 -8 3
-18 11 -36 19 -39z m51 34 c4 -6 0 -8 -10 -4 -12 4 -17 1 -18 -11 0 -14 -2
-14 -9 3 -5 11 -9 23 -9 27 -1 10 38 -3 46 -15z m363 -39 c0 -5 -4 -8 -10 -8
-5 0 -10 10 -10 23 0 18 2 19 10 7 5 -8 10 -18 10 -22z m-13 -50 c-3 -7 -5 -2
-5 12 0 14 2 19 5 13 2 -7 2 -19 0 -25z m-430 -65 c-35 -36 -41 -14 -9 33 25
37 27 38 30 15 3 -15 -5 -33 -21 -48z m487 -35 c-3 -13 -11 -29 -16 -35 -7 -9
-7 -18 1 -27 10 -12 8 -13 -8 -9 -25 6 -25 5 -2 47 11 19 17 37 14 40 -4 3 -1
6 6 6 8 0 10 -8 5 -22z m-424 -122 c0 -2 -7 -7 -16 -10 -8 -3 -12 -2 -9 4 6
10 25 14 25 6z m290 -21 c-7 -9 -15 -13 -17 -11 -7 7 7 26 19 26 6 0 6 -6 -2
-15z"/>
<path d="M3326 2125 c4 -8 11 -15 16 -15 6 0 5 6 -2 15 -7 8 -14 15 -16 15 -2
0 -1 -7 2 -15z"/>
<path d="M3520 2450 c0 -5 7 -10 16 -10 8 0 12 5 9 10 -3 6 -10 10 -16 10 -5
0 -9 -4 -9 -10z"/>
<path d="M3670 2400 c33 -23 50 -30 50 -22 0 5 -11 14 -25 20 -32 15 -45 15
-25 2z"/>
<path d="M2153 2345 c0 -33 2 -45 4 -27 2 18 2 45 0 60 -2 15 -4 0 -4 -33z"/>
<path d="M923 2320 c2 -34 -2 -50 -10 -50 -18 0 -45 -68 -34 -88 4 -10 11 -31
14 -48 5 -27 3 -33 -15 -37 -15 -4 -19 -10 -13 -24 23 -56 8 -129 -24 -120
-12 3 -17 -3 -19 -21 -1 -14 -6 -28 -11 -32 -16 -9 -35 -171 -27 -223 6 -37
11 -47 24 -45 12 2 16 -3 14 -15 -3 -15 3 -17 37 -13 42 5 45 2 44 -41 -1 -7
4 -13 9 -13 6 0 8 12 5 27 -6 33 1 53 19 53 22 0 25 -21 10 -64 -13 -38 -45
-65 -77 -66 -8 0 -23 -6 -33 -13 -16 -11 -17 -17 -6 -36 15 -30 8 -35 -41 -32
-26 1 -38 -2 -34 -9 3 -5 13 -10 21 -10 8 0 14 -7 14 -15 0 -7 7 -18 16 -23
15 -8 13 -15 -17 -57 -58 -81 -85 -105 -117 -105 -29 0 -100 -27 -132 -49 -14
-10 1100 -13 1468 -3 l134 3 -489 492 c-530 534 -723 727 -728 727 -2 0 -2
-23 -2 -50z"/>
<path d="M2033 2358 c-28 -9 -46 -28 -27 -28 19 0 84 24 84 32 0 10 -16 9 -57
-4z"/>
<path d="M2050 2327 c-18 -9 -25 -21 -26 -44 -2 -40 10 -42 29 -6 l14 27 12
-22 c6 -12 18 -22 26 -22 21 0 19 43 -3 63 -22 20 -20 20 -52 4z"/>
<path d="M3690 2320 c0 -5 7 -10 15 -10 8 0 15 5 15 10 0 6 -7 10 -15 10 -8 0
-15 -4 -15 -10z"/>
<path d="M3610 2310 c5 -33 -1 -51 -17 -57 -39 -14 -47 -59 -9 -49 18 4 26 1
30 -11 2 -10 2 0 -1 21 l-6 39 24 -16 c27 -19 69 -23 69 -6 0 8 6 7 18 -2 9
-8 -1 6 -22 31 -35 40 -71 78 -46 48 21 -25 9 -30 -16 -7 -18 16 -25 19 -24 9z
m85 -68 c-6 -7 -35 18 -35 31 0 5 9 2 20 -8 11 -10 18 -20 15 -23z"/>
<path d="M396 2215 c-3 -9 0 -15 9 -15 16 0 20 16 6 24 -5 3 -11 -1 -15 -9z"/>
<path d="M2053 2200 c-3 -11 -13 -20 -22 -21 -16 -1 25 -12 92 -23 32 -6 37
-4 37 13 0 14 -5 18 -19 14 -11 -3 -28 4 -40 16 -26 26 -41 27 -48 1z"/>
<path d="M3758 2203 c7 -3 16 -2 19 1 4 3 -2 6 -13 5 -11 0 -14 -3 -6 -6z"/>
<path d="M3665 2185 c10 -9 34 -21 52 -27 18 -7 33 -16 33 -20 0 -4 5 -8 11
-8 6 0 7 5 2 13 -4 6 -8 19 -8 27 0 15 -36 27 -85 28 -24 1 -24 1 -5 -13z"/>
<path d="M1215 2150 c3 -5 8 -10 11 -10 2 0 4 5 4 10 0 6 -5 10 -11 10 -5 0
-7 -4 -4 -10z"/>
<path d="M1968 2132 c-10 -2 -18 -8 -18 -13 0 -8 47 -3 58 6 7 5 -24 11 -40 7z"/>
<path d="M2147 2077 c-3 -8 -1 -20 4 -28 6 -10 9 -7 9 14 0 29 -5 35 -13 14z"/>
<path d="M3945 2030 c3 -5 8 -10 11 -10 2 0 4 5 4 10 0 6 -5 10 -11 10 -5 0
-7 -4 -4 -10z"/>
<path d="M2148 1986 c-7 -39 -4 -55 8 -44 3 3 4 23 2 44 l-3 39 -7 -39z"/>
<path d="M1970 1990 l-25 -20 43 0 c40 0 42 1 32 20 -13 25 -19 25 -50 0z"/>
<path d="M1912 1958 c-7 -7 -12 -19 -12 -27 0 -11 4 -10 20 4 21 19 26 35 12
35 -4 0 -13 -5 -20 -12z"/>
<path d="M2088 1937 c-27 -21 -23 -117 4 -117 6 0 8 6 5 14 -3 7 -1 18 5 24 6
6 6 12 -1 16 -6 4 -3 19 10 41 22 37 11 47 -23 22z"/>
<path d="M1688 1867 c-3 -17 2 -26 18 -34 25 -12 34 -8 34 15 0 14 -27 41 -41
42 -4 0 -9 -10 -11 -23z"/>
<path d="M1764 1869 c-3 -6 -2 -15 4 -21 6 -6 11 -2 15 11 5 22 -7 29 -19 10z"/>
<path d="M3750 1840 c0 -5 5 -10 11 -10 5 0 7 5 4 10 -3 6 -8 10 -11 10 -2 0
-4 -4 -4 -10z"/>
<path d="M1780 1822 c0 -5 9 -17 21 -28 21 -19 21 -19 18 6 -4 23 -39 43 -39
22z"/>
<path d="M1940 1802 c0 -13 -4 -20 -10 -17 -6 3 -17 -1 -26 -9 -8 -9 -22 -16
-30 -16 -8 0 -13 -9 -11 -22 1 -15 -4 -23 -18 -26 -11 -2 -24 -11 -28 -18 -5
-8 -12 -12 -18 -9 -13 8 -49 -4 -49 -16 0 -6 4 -8 8 -5 5 3 9 -8 9 -25 0 -28
-3 -30 -26 -24 -24 6 -23 4 14 -34 35 -37 40 -39 49 -24 6 10 11 36 11 58 0
39 1 40 36 43 37 3 57 29 39 49 -4 4 8 18 27 31 26 17 34 19 29 7 -3 -8 -1
-27 5 -42 9 -23 6 -29 -18 -49 -15 -13 -33 -23 -39 -24 -7 0 -12 -6 -11 -12 1
-43 -5 -59 -27 -68 -18 -6 -22 -14 -19 -32 5 -29 238 -272 252 -264 11 7 25
-12 26 -33 0 -7 10 -20 23 -28 21 -15 22 -14 22 10 0 14 -7 27 -15 31 -8 3
-15 15 -15 26 0 11 7 23 15 26 11 5 15 22 15 65 l0 59 -37 1 c-33 1 -34 2 -13
8 21 6 22 8 8 14 -27 10 -22 24 14 36 26 9 29 14 19 24 -11 9 -14 9 -18 0 -4
-12 -43 -19 -43 -8 0 3 9 14 20 25 11 11 20 16 20 10 0 -5 7 -10 15 -10 10 0
15 10 15 30 0 23 -5 30 -19 30 -10 0 -21 -9 -24 -20 -7 -28 -17 -25 -65 16
-46 39 -50 49 -26 75 20 22 9 42 -20 37 -17 -4 -26 2 -35 23 -7 16 -10 37 -6
48 3 11 -1 33 -9 48 -15 27 -15 27 -16 5z m15 -179 c0 -16 -4 -33 -8 -40 -8
-13 -47 -6 -47 9 0 7 48 58 54 58 1 0 1 -12 1 -27z m-85 -108 c0 -8 -2 -15 -4
-15 -2 0 -6 7 -10 15 -3 8 -1 15 4 15 6 0 10 -7 10 -15z"/>
<path d="M3480 1810 c8 -5 20 -10 25 -10 6 0 3 5 -5 10 -8 5 -19 10 -25 10 -5
0 -3 -5 5 -10z"/>
<path d="M1670 1774 c-19 -14 -36 -26 -38 -29 -2 -2 2 -14 8 -27 11 -22 11
-22 -9 2 -11 14 -21 20 -21 14 0 -7 20 -28 45 -48 43 -36 45 -36 45 -14 0 13
4 30 10 38 5 9 5 19 -2 27 -8 10 -8 20 0 38 14 31 7 30 -38 -1z"/>
<path d="M2115 1789 c-4 -6 -13 -8 -21 -5 -7 3 -16 1 -19 -4 -6 -9 11 -16 58
-24 23 -4 27 -1 27 20 0 17 -6 24 -19 24 -11 0 -23 -5 -26 -11z"/>
<path d="M4123 1780 c1 -11 5 -20 9 -20 11 0 10 28 -1 35 -6 3 -9 -4 -8 -15z"/>
<path d="M4095 1750 c-3 -5 -4 -14 0 -19 3 -5 -2 -12 -10 -14 -12 -4 -12 -5 1
-3 10 0 18 10 19 24 2 24 -1 27 -10 12z"/>
<path d="M2123 1713 c-18 -7 -16 -23 2 -23 8 0 15 7 15 15 0 8 -1 15 -2 14 -2
0 -9 -3 -15 -6z"/>
<path d="M4085 1670 c-3 -5 1 -10 9 -10 9 0 16 -6 16 -14 0 -24 15 -26 29 -4
11 18 11 20 -3 15 -10 -4 -16 -1 -16 8 0 17 -26 20 -35 5z"/>
<path d="M2103 1658 c-13 -6 -23 -15 -23 -20 0 -12 17 -10 32 6 10 9 20 11 31
4 11 -5 17 -5 17 0 0 8 -26 24 -33 21 -1 0 -12 -5 -24 -11z"/>
<path d="M2624 1580 c-4 -16 -13 -30 -20 -30 -8 0 -14 -4 -14 -10 0 -5 6 -10
14 -10 9 0 12 -7 9 -18 -2 -10 3 -24 11 -31 22 -18 20 -48 -3 -61 -21 -11 -33
-43 -51 -134 -9 -43 -15 -55 -22 -45 -7 10 -8 8 -3 -9 5 -18 0 -26 -24 -40
-17 -9 -31 -20 -31 -24 0 -5 39 -8 86 -8 47 0 83 4 80 9 -3 5 1 26 8 47 9 24
15 31 15 19 1 -11 12 -25 26 -32 26 -11 33 -5 15 13 -15 15 -3 41 21 47 26 7
24 22 -11 113 -22 58 -27 80 -18 85 9 6 6 10 -7 14 -50 16 -65 26 -65 40 0 9
7 18 16 22 23 8 38 54 22 65 -27 17 -48 8 -54 -22z m72 -262 c4 -6 3 -8 -4 -4
-5 3 -12 1 -14 -6 -3 -8 -7 -6 -11 5 -7 20 17 24 29 5z m-13 -43 c-3 -9 -8
-14 -10 -11 -3 3 -2 9 2 15 9 16 15 13 8 -4z"/>
<path d="M2765 1580 c10 -11 20 -20 23 -20 3 0 -3 9 -13 20 -10 11 -20 20 -23
20 -3 0 3 -9 13 -20z"/>
<path d="M2070 1586 c0 -2 7 -7 16 -10 8 -3 12 -2 9 4 -6 10 -25 14 -25 6z"/>
<path d="M3940 1565 c7 -8 16 -15 21 -15 5 0 9 7 9 15 0 9 -9 15 -21 15 -18 0
-19 -2 -9 -15z"/>
<path d="M4040 1530 c0 -5 5 -10 10 -10 6 0 10 5 10 10 0 6 -4 10 -10 10 -5 0
-10 -4 -10 -10z"/>
<path d="M858 1513 c7 -3 16 -2 19 1 4 3 -2 6 -13 5 -11 0 -14 -3 -6 -6z"/>
<path d="M3930 1485 c-10 -13 -9 -15 9 -15 12 0 21 6 21 15 0 8 -4 15 -9 15
-5 0 -14 -7 -21 -15z"/>
<path d="M2458 1423 c-14 -16 -14 -20 3 -37 18 -19 18 -18 17 18 -1 20 -2 36
-3 36 -1 0 -9 -8 -17 -17z"/>
<path d="M2575 1399 c-4 -6 -5 -12 -2 -15 2 -3 7 2 10 11 7 17 1 20 -8 4z"/>
<path d="M2419 1373 c-13 -16 -12 -17 4 -4 9 7 17 15 17 17 0 8 -8 3 -21 -13z"/>
<path d="M2552 1335 c1 -20 4 -31 8 -25 7 11 2 60 -6 60 -2 0 -3 -16 -2 -35z"/>
<path d="M2369 1313 l-34 -38 38 34 c34 33 42 41 34 41 -2 0 -19 -17 -38 -37z"/>
<path d="M3473 1338 c-17 -23 -25 -44 -9 -24 9 11 22 23 28 28 9 5 9 8 2 8 -6
0 -16 -6 -21 -12z"/>
<path d="M3906 1310 c4 -25 10 -46 15 -48 15 -6 10 -22 -6 -22 -8 0 -12 -6 -9
-14 5 -12 -4 -14 -39 -13 -42 2 -78 -15 -58 -28 5 -3 12 -1 16 5 10 17 25 11
25 -10 0 -27 50 -27 75 0 10 12 24 19 30 16 8 -3 10 4 7 20 -2 13 -8 24 -13
24 -5 0 -9 9 -9 19 0 11 -4 23 -10 26 -5 3 -14 20 -20 38 -8 29 -9 27 -4 -13z"/>
<path d="M2429 1317 c13 -16 5 -27 -19 -27 -9 0 -27 -11 -40 -25 l-24 -25 35
6 c34 7 34 7 16 -13 -12 -14 -15 -23 -8 -28 21 -12 49 6 55 36 3 17 10 28 16
24 13 -8 13 -5 -1 34 -6 17 -18 31 -26 31 -12 0 -13 -3 -4 -13z"/>
<path d="M3175 1320 c-3 -5 -1 -10 4 -10 6 0 11 5 11 10 0 6 -2 10 -4 10 -3 0
-8 -4 -11 -10z"/>
<path d="M3761 1282 c-13 -24 -6 -31 20 -25 11 3 19 12 17 21 -5 23 -25 26
-37 4z"/>
<path d="M3850 1280 c0 -5 7 -10 16 -10 8 0 12 5 9 10 -3 6 -10 10 -16 10 -5
0 -9 -4 -9 -10z"/>
<path d="M2289 1223 l-24 -28 28 24 c15 14 27 26 27 28 0 8 -8 1 -31 -24z"/>
<path d="M3988 1209 c12 -14 22 -31 22 -37 0 -7 15 -12 38 -11 20 0 31 3 25 6
-8 3 -11 14 -7 31 5 22 4 25 -7 15 -18 -18 -49 -16 -73 4 -18 15 -18 14 2 -8z"/>
<path d="M3415 1200 c-13 -14 -15 -24 -8 -31 16 -16 41 0 41 27 0 29 -9 30
-33 4z"/>
<path d="M2835 1200 c-3 -5 7 -12 22 -16 15 -4 31 -11 34 -17 4 -5 14 -7 24
-5 12 2 2 10 -28 25 -26 13 -49 18 -52 13z"/>
<path d="M2333 1163 c9 -2 23 -2 30 0 6 3 -1 5 -18 5 -16 0 -22 -2 -12 -5z"/>
<path d="M317 1056 c-30 -31 -60 -56 -67 -56 -6 0 -9 -4 -5 -9 3 -5 1 -12 -5
-16 -6 -4 -10 6 -10 23 0 42 -10 46 -42 15 -33 -31 -34 -38 -10 -48 13 -5 14
-4 5 6 -10 10 -9 16 4 31 9 10 20 18 25 18 12 0 10 -34 -4 -49 -11 -10 -9 -11
7 -5 11 4 -15 -27 -58 -67 l-77 -75 35 -34 35 -34 58 57 58 57 18 -21 18 -21
34 33 35 34 -25 17 -24 18 60 58 59 57 -35 34 -35 34 -54 -57z m98 -25 c-22
-22 -44 1 -24 26 13 17 13 17 -4 4 -24 -19 -47 0 -27 24 12 14 16 13 42 -12
25 -24 27 -29 13 -42z m-60 19 c10 -16 -15 -42 -29 -31 -8 6 -11 2 -11 -14 0
-15 4 -20 9 -15 6 6 16 5 25 -3 14 -10 14 -10 3 4 -10 13 -9 19 3 29 12 10 19
10 27 2 9 -9 5 -19 -17 -42 -34 -36 -42 -37 -72 -8 l-23 22 32 33 c34 35 43
39 53 23z m-46 -116 l43 -46 -22 -23 c-17 -19 -25 -21 -35 -12 -11 10 -9 16 7
34 21 23 8 26 -26 6 -16 -9 -23 -7 -39 14 -11 13 -22 22 -25 18 -3 -3 5 -16
18 -30 23 -24 23 -26 7 -43 -15 -15 -19 -15 -27 -2 -6 9 -5 20 3 30 11 13 10
13 -6 1 -16 -13 -20 -13 -28 0 -7 10 -8 8 -7 -11 3 -20 -1 -25 -19 -24 -16 0
-20 -3 -13 -11 15 -18 -16 -43 -33 -26 -9 9 7 30 68 91 44 44 82 80 85 80 3 0
25 -21 49 -46z m-128 -137 c-24 -25 -33 -29 -43 -19 -9 9 -5 20 22 47 29 30
35 33 43 19 7 -12 1 -24 -22 -47z"/>
<path d="M314 878 l-19 -23 23 19 c21 18 27 26 19 26 -2 0 -12 -10 -23 -22z"/>
<path d="M775 1054 c-222 -35 -378 -167 -430 -365 -19 -71 -19 -220 0 -294 42
-159 154 -266 328 -312 131 -35 378 -15 511 41 l35 15 3 260 3 261 -237 0
-238 0 0 -110 0 -110 95 0 96 0 -3 -67 -3 -68 -57 -3 c-110 -6 -179 34 -222
128 -30 65 -28 188 3 253 29 59 88 111 146 127 66 18 236 8 303 -18 l53 -20
-3 126 -3 127 -55 12 c-58 14 -274 25 -325 17z"/>
<path d="M1723 1045 c-194 -42 -337 -186 -378 -380 -50 -239 41 -458 229 -550
113 -55 291 -66 459 -29 l67 16 0 129 c0 71 -2 129 -4 129 -2 0 -25 -9 -51
-21 -61 -27 -179 -36 -242 -19 -61 18 -137 89 -152 145 -14 51 -14 139 0 190
15 53 91 129 144 144 77 21 208 10 288 -24 16 -7 17 3 17 123 0 148 9 134
-100 152 -87 13 -201 11 -277 -5z"/>
<path d="M160 1035 c-6 -8 -10 -20 -7 -27 3 -8 6 -6 6 5 1 11 6 15 13 11 6 -4
8 -3 4 4 -3 6 2 13 11 15 15 4 15 5 2 6 -9 0 -22 -6 -29 -14z"/>
<path d="M4000 940 l0 -110 63 0 c71 0 77 3 70 31 -4 14 -14 19 -39 19 l-34 0
0 85 0 85 -30 0 -30 0 0 -110z"/>
<path d="M2250 560 l0 -480 316 0 315 0 -3 113 -3 112 -165 2 -165 2 0 68 0
68 148 3 148 3 -3 112 -3 112 -145 2 -145 1 0 69 0 68 155 5 155 5 0 108 0
107 -302 0 -303 0 0 -480z"/>
<path d="M3020 560 l0 -480 145 0 145 0 0 170 c0 167 0 170 22 170 45 0 92
-69 140 -206 l46 -129 161 -3 c88 -1 161 0 161 3 0 3 -27 74 -60 158 -64 164
-102 221 -165 251 l-35 17 69 35 c81 40 123 90 141 165 26 107 -11 211 -93
266 -78 52 -151 63 -431 63 l-246 0 0 -480z m446 247 c45 -53 25 -140 -40
-171 -19 -9 -52 -16 -75 -16 l-41 0 0 113 0 112 66 -5 c56 -5 70 -10 90 -33z"/>
<path d="M4017 576 l-36 -106 34 0 c24 0 34 5 38 20 4 15 14 20 37 20 23 0 33
-5 37 -20 4 -15 14 -20 38 -20 l33 0 -33 103 -32 102 -41 3 -40 3 -35 -105z
m83 25 c0 -11 3 -26 6 -35 4 -12 0 -16 -16 -16 -18 0 -21 4 -16 23 3 12 6 28
6 35 0 6 5 12 10 12 6 0 10 -9 10 -19z"/>
<path d="M4000 205 l0 -105 74 0 c66 0 77 3 90 22 22 31 20 54 -6 73 -21 15
-22 17 -5 26 9 5 17 21 17 34 0 37 -35 55 -107 55 l-63 0 0 -105z m99 52 c13
-16 5 -27 -21 -27 -11 0 -18 7 -18 20 0 23 22 27 39 7z m9 -96 c-5 -24 -48
-27 -48 -3 0 25 7 31 31 25 12 -3 19 -12 17 -22z"/>
</g>
</svg>
