<?xml version="1.0" standalone="no"?>
<!DOCTYPE svg PUBLIC "-//W3C//DTD SVG 20010904//EN"
 "http://www.w3.org/TR/2001/REC-SVG-20010904/DTD/svg10.dtd">
<svg version="1.0" xmlns="http://www.w3.org/2000/svg"
 width="620.000000pt" height="306.000000pt" viewBox="0 0 620.000000 306.000000"
 preserveAspectRatio="xMidYMid meet">

<g transform="translate(0.000000,306.000000) scale(0.100000,-0.100000)"
fill="#000000" stroke="none">
<path d="M2570 2340 c-11 -11 -22 -30 -25 -42 -3 -13 -4 -226 -3 -474 3 -427
4 -453 22 -473 47 -51 137 -30 156 37 8 25 10 180 8 479 l-3 441 -24 26 c-31
33 -100 37 -131 6z"/>
<path d="M3140 2337 c-87 -30 -134 -67 -167 -135 -51 -105 -29 -241 50 -308
46 -39 136 -77 257 -109 175 -46 225 -82 225 -165 0 -92 -76 -150 -196 -150
-101 0 -143 26 -194 122 -54 101 -61 108 -104 108 -111 0 -110 -156 1 -271 81
-83 227 -122 379 -101 134 19 224 77 277 177 23 43 27 62 27 135 0 175 -68
236 -357 318 -158 45 -203 72 -214 128 -5 27 -2 42 13 62 39 52 69 66 147 70
93 5 135 -13 173 -74 70 -113 67 -109 107 -112 70 -6 105 49 85 132 -18 75
-93 147 -184 175 -95 30 -236 29 -325 -2z"/>
<path d="M4165 2328 c-37 -35 -36 -34 -267 -641 -49 -131 -90 -254 -91 -272
-2 -57 51 -101 109 -90 39 7 56 33 105 170 l31 85 203 0 202 0 32 -87 c17 -49
40 -103 51 -121 37 -60 96 -67 147 -16 21 21 25 32 21 67 -5 37 -294 792 -333
866 -25 50 -61 71 -121 71 -47 0 -59 -4 -89 -32z m164 -386 c39 -112 71 -205
71 -207 0 -3 -65 -5 -145 -5 -96 0 -145 4 -145 11 0 6 28 90 61 187 78 223 79
226 83 221 2 -2 36 -95 75 -207z"/>
<path d="M963 2203 c-42 -3 -63 -8 -67 -18 -4 -12 5 -15 44 -15 28 0 50 -1 50
-3 0 -2 -34 -162 -75 -356 -80 -377 -88 -438 -55 -471 24 -24 97 -27 139 -6
48 25 131 136 131 176 0 28 -28 4 -54 -45 -44 -85 -106 -122 -114 -69 -2 16
131 654 165 792 6 24 5 24 -164 15z"/>
<path d="M2001 2201 c-81 -8 -97 -31 -21 -31 44 0 51 -2 46 -17 -27 -87 -149
-640 -150 -680 -1 -63 21 -98 84 -130 141 -73 347 25 410 195 28 74 27 174 -3
227 -48 86 -182 112 -262 51 -31 -24 -36 -25 -31 -10 3 11 24 98 46 194 22 96
43 183 46 193 5 15 -1 17 -48 15 -29 -1 -82 -4 -117 -7z m244 -406 c29 -28 30
-38 10 -142 -39 -205 -95 -303 -172 -303 -104 0 -115 75 -46 299 28 90 60 136
108 157 45 20 73 17 100 -11z"/>
<path d="M1398 1840 c-104 -31 -204 -155 -223 -277 -18 -112 46 -228 132 -240
64 -8 110 5 154 44 21 19 39 31 39 25 0 -6 12 -24 26 -41 21 -26 33 -31 68
-31 53 0 98 28 142 90 34 47 53 100 37 100 -6 0 -27 -27 -47 -60 -52 -84 -96
-103 -96 -42 0 15 22 116 49 225 l48 197 -61 0 -62 0 -13 -47 -12 -48 -19 42
c-28 63 -86 86 -162 63z m115 -40 c53 -42 57 -121 15 -260 -38 -124 -97 -190
-172 -190 -63 0 -69 78 -21 260 50 186 107 246 178 190z"/>
<path d="M4970 1440 l0 -40 85 0 85 0 0 40 0 40 -85 0 -85 0 0 -40z"/>
<path d="M5440 1370 l0 -40 80 0 80 0 0 40 0 40 -80 0 -80 0 0 -40z"/>
<path d="M5500 1208 c1 -64 6 -68 91 -68 l79 0 0 45 0 45 -85 0 c-82 0 -85 -1
-85 -22z"/>
<path d="M5157 1214 c-4 -4 -7 -25 -7 -46 l0 -38 86 0 85 0 -3 43 -3 42 -75 3
c-42 1 -79 0 -83 -4z"/>
<path d="M4300 1155 l0 -45 80 0 80 0 0 45 0 45 -80 0 -80 0 0 -45z"/>
<path d="M4770 1095 l0 -45 85 0 85 0 0 45 0 45 -85 0 -85 0 0 -45z"/>
<path d="M4520 1025 l0 -45 80 0 80 0 0 45 0 45 -80 0 -80 0 0 -45z"/>
<path d="M5280 1015 l0 -45 80 0 80 0 0 45 0 45 -80 0 -80 0 0 -45z"/>
<path d="M4350 900 l0 -40 80 0 80 0 0 40 0 40 -80 0 -80 0 0 -40z"/>
<path d="M4810 895 l0 -45 80 0 80 0 0 45 0 45 -80 0 -80 0 0 -45z"/>
<path d="M5530 885 l0 -45 80 0 80 0 0 45 0 45 -80 0 -80 0 0 -45z"/>
<path d="M5140 860 l0 -40 80 0 80 0 0 40 0 40 -80 0 -80 0 0 -40z"/>
<path d="M4110 835 l0 -45 80 0 80 0 0 45 0 45 -80 0 -80 0 0 -45z"/>
<path d="M4460 715 l0 -45 80 0 80 0 0 45 0 45 -80 0 -80 0 0 -45z"/>
<path d="M906 703 c-3 -3 -6 -55 -6 -115 0 -89 3 -108 15 -108 12 0 15 19 15
109 0 100 -6 131 -24 114z"/>
<path d="M1146 703 c-3 -3 -6 -54 -6 -112 l0 -106 47 -2 c61 -2 81 9 89 52 13
70 -34 123 -85 95 -20 -10 -21 -8 -21 29 0 38 -10 57 -24 44z m98 -109 c10
-26 7 -59 -8 -79 -12 -17 -18 -18 -40 -7 -20 9 -26 19 -26 45 0 18 5 38 12 45
17 17 55 15 62 -4z"/>
<path d="M1956 688 c-9 -12 -13 -24 -11 -27 6 -5 45 29 45 41 0 15 -19 8 -34
-14z"/>
<path d="M2620 660 c0 -39 -1 -39 -25 -28 -59 27 -110 -67 -70 -128 16 -26 68
-34 81 -13 5 8 9 8 14 -1 19 -31 30 6 30 106 0 86 -3 104 -15 104 -11 0 -15
-11 -15 -40z m-12 -62 c33 -33 -9 -115 -46 -92 -17 11 -28 64 -18 90 7 17 48
18 64 2z"/>
<path d="M2182 678 c6 -18 28 -21 28 -4 0 9 -7 16 -16 16 -9 0 -14 -5 -12 -12z"/>
<path d="M1780 650 c0 -12 -7 -20 -17 -20 -17 -1 -17 -1 0 -14 12 -9 17 -27
17 -63 0 -27 5 -54 12 -61 17 -17 58 -15 58 2 0 8 -8 13 -17 12 -15 -1 -19 9
-21 52 -3 47 -1 52 17 52 12 0 21 5 21 10 0 6 -9 10 -20 10 -13 0 -20 7 -20
20 0 11 -7 20 -15 20 -8 0 -15 -9 -15 -20z"/>
<path d="M998 633 c-10 -2 -18 -11 -18 -18 0 -11 6 -12 25 -5 32 12 55 3 55
-21 0 -14 -7 -19 -26 -19 -38 0 -64 -18 -64 -44 0 -34 20 -46 73 -44 l47 2 0
61 c0 33 -4 66 -8 72 -9 14 -58 24 -84 16z m62 -102 c0 -22 -37 -38 -52 -23
-17 17 -1 42 27 42 18 0 25 -5 25 -19z"/>
<path d="M1353 630 c-27 -11 -43 -40 -43 -79 0 -68 87 -98 129 -45 28 36 27
79 -4 109 -25 26 -45 30 -82 15z m65 -32 c17 -17 15 -64 -4 -82 -34 -34 -74
-9 -74 46 0 30 17 48 45 48 12 0 26 -5 33 -12z"/>
<path d="M1546 631 c-3 -5 -15 -7 -26 -4 -19 5 -20 0 -20 -71 0 -61 3 -76 15
-76 11 0 15 13 15 53 0 56 12 77 43 77 10 0 17 5 15 13 -6 15 -34 21 -42 8z"/>
<path d="M1633 630 c-34 -14 -29 -30 5 -20 32 9 62 -3 62 -25 0 -10 -10 -15
-28 -15 -32 0 -72 -25 -72 -45 0 -29 30 -45 78 -42 l47 3 0 63 c0 82 -28 107
-92 81z m67 -93 c0 -18 -21 -37 -41 -37 -22 0 -33 16 -25 35 7 19 66 20 66 2z"/>
<path d="M1914 630 c-11 -4 -26 -22 -33 -38 -23 -55 10 -112 66 -112 45 0 73
30 73 78 0 43 -6 55 -37 71 -25 13 -40 13 -69 1z m74 -66 c4 -48 -15 -69 -53
-60 -30 8 -42 47 -26 82 9 21 17 25 44 22 30 -3 32 -6 35 -44z"/>
<path d="M2111 631 c-7 -5 -22 -6 -33 -3 -18 4 -19 0 -16 -68 2 -48 7 -75 16
-78 8 -2 12 12 12 50 0 57 12 78 43 78 10 0 17 5 15 12 -6 16 -20 20 -37 9z"/>
<path d="M2293 630 c-27 -11 -43 -40 -43 -79 0 -68 87 -98 129 -45 28 36 27
79 -4 109 -25 26 -45 30 -82 15z m73 -45 c10 -41 -3 -74 -33 -81 -31 -8 -53
15 -53 56 0 34 17 50 52 50 21 0 29 -6 34 -25z"/>
<path d="M2716 619 c-33 -26 -37 -88 -6 -119 20 -20 63 -26 94 -14 29 11 16
23 -19 17 -37 -6 -65 9 -65 33 0 10 14 14 50 14 49 0 50 1 50 29 0 20 -8 35
-22 45 -30 21 -50 20 -82 -5z m68 -15 c25 -25 19 -34 -24 -34 -43 0 -55 20
-22 39 23 14 28 14 46 -5z"/>
<path d="M2180 555 c0 -60 3 -75 15 -75 12 0 15 15 15 75 0 60 -3 75 -15 75
-12 0 -15 -15 -15 -75z"/>
<path d="M2753 265 c-14 -11 -16 -16 -5 -26 8 -9 12 -9 12 -2 0 7 16 11 42 10
35 -2 43 1 46 18 4 17 2 18 -12 6 -13 -11 -22 -11 -40 -3 -18 8 -28 7 -43 -3z"/>
<path d="M3260 242 c0 -37 0 -38 -38 -34 -45 4 -60 -10 -69 -62 -4 -24 0 -44
11 -60 14 -22 23 -25 71 -24 l55 2 0 108 c0 89 -3 108 -15 108 -11 0 -15 -11
-15 -38z m-11 -66 c17 -20 10 -77 -11 -90 -26 -16 -52 4 -56 43 -4 36 12 61
38 61 10 0 23 -6 29 -14z"/>
<path d="M5492 260 c-24 -39 -3 -44 22 -5 12 18 13 25 4 25 -7 0 -19 -9 -26
-20z"/>
<path d="M907 263 c-4 -3 -7 -51 -7 -105 0 -80 3 -98 15 -98 12 0 15 18 15
105 0 96 -5 117 -23 98z"/>
<path d="M3602 254 c-34 -23 -26 -63 18 -91 59 -38 61 -42 49 -65 -10 -18 -17
-20 -56 -14 -40 5 -44 4 -33 -9 15 -18 80 -20 102 -2 38 31 28 71 -28 102 -62
35 -53 89 11 65 19 -7 25 -6 25 4 0 28 -54 34 -88 10z"/>
<path d="M3740 255 c0 -8 7 -15 15 -15 8 0 15 7 15 15 0 8 -7 15 -15 15 -8 0
-15 -7 -15 -15z"/>
<path d="M4936 261 c-7 -10 -76 -191 -76 -197 0 -2 7 -4 15 -4 8 0 17 11 21
25 6 22 11 25 55 25 44 0 49 -3 55 -25 6 -23 34 -36 34 -16 0 5 -16 52 -36
105 -33 87 -53 112 -68 87z m43 -108 c1 -8 -11 -13 -29 -13 -34 0 -36 7 -14
58 l16 37 13 -35 c8 -19 14 -41 14 -47z"/>
<path d="M5705 261 c-7 -12 12 -24 25 -16 11 7 4 25 -10 25 -5 0 -11 -4 -15
-9z"/>
<path d="M1300 231 c0 -11 -6 -22 -12 -25 -10 -5 -10 -7 0 -12 7 -3 12 -25 12
-54 0 -27 3 -55 6 -64 7 -18 64 -23 64 -6 0 6 -9 10 -20 10 -18 0 -20 7 -20
55 0 48 2 55 20 55 11 0 20 5 20 10 0 6 -9 10 -20 10 -13 0 -20 7 -20 20 0 11
-7 20 -15 20 -8 0 -15 -9 -15 -19z"/>
<path d="M2330 231 c0 -11 -6 -22 -12 -25 -10 -5 -10 -7 0 -12 7 -3 12 -26 12
-58 0 -57 12 -76 47 -76 28 0 30 16 3 23 -17 4 -20 14 -20 56 0 44 3 51 20 51
11 0 20 5 20 10 0 6 -9 10 -20 10 -13 0 -20 7 -20 20 0 11 -7 20 -15 20 -8 0
-15 -9 -15 -19z"/>
<path d="M3960 230 c0 -11 -7 -20 -15 -20 -8 0 -15 -4 -15 -10 0 -5 7 -10 15
-10 10 0 15 -16 17 -62 3 -63 3 -63 36 -66 18 -2 32 1 32 7 0 6 -9 11 -20 11
-18 0 -20 7 -20 55 0 48 2 55 20 55 11 0 20 5 20 10 0 6 -8 10 -19 10 -10 0
-21 9 -24 20 -3 11 -10 20 -16 20 -6 0 -11 -9 -11 -20z"/>
<path d="M5600 231 c0 -11 -6 -22 -12 -25 -10 -5 -10 -7 0 -12 7 -3 12 -25 12
-54 0 -27 3 -55 6 -64 7 -18 64 -23 64 -6 0 6 -9 10 -20 10 -18 0 -20 7 -20
55 l0 55 40 0 40 0 0 -65 c0 -37 4 -65 10 -65 6 0 10 32 10 75 l0 75 -50 0
c-43 0 -50 3 -50 20 0 11 -7 20 -15 20 -8 0 -15 -9 -15 -19z"/>
<path d="M990 135 c0 -43 4 -75 10 -75 6 0 10 22 10 49 0 32 6 55 16 65 36 37
64 10 64 -61 0 -29 5 -53 10 -53 14 0 13 123 -2 138 -15 15 -61 15 -76 0 -9
-9 -12 -9 -12 0 0 7 -4 12 -10 12 -6 0 -10 -32 -10 -75z"/>
<path d="M1173 203 c-27 -10 -14 -53 22 -74 50 -30 47 -53 -6 -46 -28 4 -39 2
-36 -6 5 -16 75 -21 93 -6 25 21 16 48 -26 74 -45 28 -44 49 1 43 20 -3 29 0
29 9 0 13 -51 17 -77 6z"/>
<path d="M1410 135 c0 -60 3 -75 15 -75 11 0 15 13 15 53 0 55 12 77 42 77 10
0 18 5 18 10 0 14 -43 13 -58 -2 -9 -9 -12 -9 -12 0 0 7 -4 12 -10 12 -6 0
-10 -32 -10 -75z"/>
<path d="M1530 147 c0 -36 5 -68 12 -75 15 -15 61 -15 76 0 9 9 12 9 12 0 0
-7 7 -12 15 -12 12 0 15 15 15 75 0 60 -3 75 -15 75 -11 0 -15 -13 -15 -53 0
-56 -12 -77 -42 -77 -22 0 -38 37 -38 91 0 21 -4 39 -10 39 -6 0 -10 -28 -10
-63z"/>
<path d="M1710 135 c0 -43 4 -75 10 -75 6 0 10 22 10 48 0 36 5 54 20 67 34
31 50 13 50 -55 0 -46 3 -60 15 -60 10 0 15 15 17 56 3 60 20 83 52 71 12 -5
16 -20 16 -67 0 -47 3 -60 15 -60 12 0 15 13 15 56 0 30 -5 64 -10 75 -12 22
-59 26 -78 7 -9 -9 -15 -9 -24 0 -15 15 -61 15 -76 0 -9 -9 -12 -9 -12 0 0 7
-4 12 -10 12 -6 0 -10 -32 -10 -75z"/>
<path d="M1986 188 c-20 -29 -20 -77 0 -106 13 -19 23 -23 62 -20 25 2 47 8
49 14 2 6 -10 8 -32 6 -37 -4 -65 11 -65 34 0 10 15 14 55 14 46 0 55 3 55 18
0 36 -29 62 -70 62 -29 0 -43 -6 -54 -22z m84 -2 c0 -2 3 -11 6 -20 5 -13 -2
-16 -35 -16 -42 0 -50 7 -29 28 11 11 58 17 58 8z"/>
<path d="M2150 135 c0 -59 3 -75 15 -75 10 0 15 15 17 56 3 60 20 83 52 71 12
-5 16 -20 16 -67 0 -47 3 -60 15 -60 12 0 15 13 15 56 0 73 -12 94 -53 94 -18
0 -38 -5 -45 -12 -9 -9 -12 -9 -12 0 0 7 -4 12 -10 12 -6 0 -10 -32 -10 -75z"/>
<path d="M2443 203 c-26 -10 -12 -20 29 -19 31 1 43 -3 46 -15 2 -11 -10 -18
-40 -25 -41 -8 -43 -11 -43 -44 l0 -35 58 -2 57 -1 0 54 c0 76 -12 94 -58 93
-20 0 -43 -3 -49 -6z m75 -95 c-3 -25 -43 -37 -61 -19 -15 15 10 41 40 41 20
0 24 -4 21 -22z"/>
<path d="M2606 188 c-9 -12 -16 -39 -16 -60 0 -30 6 -42 30 -60 32 -23 40 -48
15 -48 -8 0 -15 -5 -15 -11 0 -6 10 -9 23 -7 14 2 23 11 25 27 2 13 14 33 25
43 l22 19 -33 -6 c-42 -9 -62 8 -62 50 0 43 20 59 62 50 29 -7 31 -6 19 9 -20
24 -77 21 -95 -6z"/>
<path d="M2747 203 c-16 -15 -5 -21 32 -16 30 4 39 2 45 -12 8 -21 10 -19 -38
-31 -83 -20 -74 -78 13 -80 l51 -1 0 62 c0 34 -5 66 -12 73 -13 13 -80 17 -91
5z m83 -86 c0 -20 -22 -37 -47 -37 -16 0 -23 6 -23 19 0 11 6 22 13 24 24 10
57 7 57 -6z"/>
<path d="M2917 193 c-23 -26 -30 -68 -16 -95 16 -32 28 -38 71 -38 27 0 41 6
52 22 22 31 20 91 -2 111 -25 22 -85 22 -105 0z m81 -15 c17 -17 15 -73 -2
-88 -42 -34 -92 22 -68 75 13 27 49 34 70 13z"/>
<path d="M3350 190 c-24 -24 -26 -77 -4 -108 13 -19 23 -23 62 -20 25 2 47 8
49 14 2 6 -10 8 -32 6 -37 -4 -65 11 -65 34 0 10 15 14 55 14 61 0 70 14 39
58 -20 29 -76 30 -104 2z m80 -4 c0 -2 3 -11 6 -20 5 -13 -2 -16 -35 -16 -42
0 -50 7 -29 28 11 11 58 17 58 8z"/>
<path d="M3740 135 c0 -60 3 -75 15 -75 12 0 15 15 15 75 0 60 -3 75 -15 75
-12 0 -15 -15 -15 -75z"/>
<path d="M3821 191 c-15 -28 -6 -45 35 -65 44 -21 39 -41 -10 -40 -51 2 -41
-20 12 -24 32 -2 43 1 51 17 15 28 4 50 -35 66 -47 20 -46 49 1 43 22 -2 34 0
32 6 -2 6 -20 12 -40 14 -27 2 -38 -1 -46 -17z"/>
<path d="M4084 202 c-38 -25 -41 -112 -4 -132 28 -15 100 -13 100 3 0 9 -11
12 -35 9 -37 -4 -65 11 -65 34 0 10 15 14 55 14 51 0 55 2 55 23 0 13 -8 31
-18 40 -19 17 -68 22 -88 9z m74 -34 c3 -15 -4 -18 -37 -18 -43 0 -50 7 -29
28 18 18 62 11 66 -10z"/>
<path d="M4230 133 c0 -58 3 -73 15 -73 11 0 15 13 15 53 0 55 12 77 41 77 22
0 29 -20 29 -81 0 -36 4 -49 15 -49 10 0 15 15 17 56 6 104 68 96 68 -8 0 -26
5 -48 10 -48 14 0 13 123 -2 138 -15 15 -64 16 -73 2 -5 -7 -11 -8 -19 -1 -6
5 -35 9 -64 9 l-52 -1 0 -74z"/>
<path d="M4513 203 c-26 -10 -12 -20 29 -19 31 1 43 -3 46 -15 2 -12 -7 -18
-37 -23 -47 -7 -68 -34 -51 -66 9 -16 20 -20 65 -19 l55 2 0 54 c0 75 -12 93
-58 92 -20 0 -43 -3 -49 -6z m75 -95 c-3 -25 -43 -37 -61 -19 -15 15 10 41 40
41 20 0 24 -4 21 -22z"/>
<path d="M4670 195 c-19 -23 -8 -49 28 -64 20 -9 32 -22 32 -34 0 -16 -6 -19
-35 -15 -24 3 -35 0 -35 -9 0 -8 13 -13 38 -13 69 0 85 47 27 81 -45 27 -47
53 -5 47 20 -3 30 0 30 9 0 18 -64 17 -80 -2z"/>
<path d="M5087 192 c-21 -22 -22 -91 -4 -117 11 -14 22 -17 55 -12 l42 5 0
-34 c0 -19 5 -34 10 -34 6 0 10 42 10 105 0 63 -4 105 -10 105 -5 0 -10 -5
-10 -12 0 -9 -3 -9 -12 0 -18 18 -63 14 -81 -6z m77 -18 c32 -32 10 -94 -34
-94 -24 0 -32 13 -32 55 0 19 3 38 7 44 9 16 41 13 59 -5z"/>
<path d="M5250 157 c0 -64 20 -97 59 -97 15 0 32 5 39 12 9 9 12 9 12 0 0 -7
5 -12 10 -12 6 0 10 32 10 75 0 43 -4 75 -10 75 -5 0 -10 -22 -10 -49 0 -53
-17 -81 -50 -81 -23 0 -30 19 -30 81 0 37 -4 49 -15 49 -11 0 -15 -13 -15 -53z"/>
<path d="M5443 203 c-26 -10 -12 -20 29 -19 31 1 43 -3 46 -15 2 -12 -7 -18
-37 -23 -47 -7 -68 -34 -51 -66 9 -16 20 -20 65 -19 l55 2 0 54 c0 75 -12 93
-58 92 -20 0 -43 -3 -49 -6z m75 -95 c-3 -25 -43 -37 -61 -19 -15 15 10 41 40
41 20 0 24 -4 21 -22z"/>
<path d="M5803 204 c-7 -3 -17 -20 -23 -39 -9 -26 -8 -41 4 -70 15 -34 17 -36
58 -33 33 2 44 7 47 23 3 16 1 17 -12 6 -43 -35 -94 20 -68 75 10 23 16 26 47
21 25 -4 34 -2 31 6 -4 12 -63 20 -84 11z"/>
<path d="M5937 192 c-23 -26 -22 -94 1 -115 25 -22 85 -22 105 1 25 28 26 92
1 116 -22 22 -87 21 -107 -2z m95 -33 c14 -42 -5 -79 -41 -79 -16 0 -33 5 -36
10 -11 18 -8 69 5 85 20 24 62 15 72 -16z"/>
<path d="M6112 198 c-22 -22 -13 -48 23 -69 50 -30 47 -53 -6 -46 -28 4 -39 2
-36 -6 5 -16 75 -21 93 -6 25 21 16 48 -26 74 -45 28 -44 49 1 43 20 -3 29 0
29 9 0 17 -61 18 -78 1z"/>
</g>
</svg>
